<?xml version="1.0" encoding="UTF-8"?>
<svg id="_레이어_1" data-name="레이어 1" xmlns="http://www.w3.org/2000/svg" version="1.1" viewBox="0 0 317 235">
  <defs>
    <style>
      .cls-1, .cls-2, .cls-3, .cls-4, .cls-5, .cls-6, .cls-7, .cls-8, .cls-9 {
        stroke-miterlimit: 10;
      }

      .cls-1, .cls-3, .cls-10, .cls-11, .cls-5, .cls-6, .cls-7, .cls-8, .cls-9 {
        stroke: #231815;
      }

      .cls-1, .cls-12 {
        fill: #231815;
      }

      .cls-2 {
        fill: #f7ba23;
      }

      .cls-2, .cls-4 {
        stroke: #201a20;
      }

      .cls-3 {
        fill: #fc8175;
      }

      .cls-10 {
        fill: #809ded;
        stroke-miterlimit: 10;
        stroke-width: 1px;
      }

      .cls-11 {
        stroke-linejoin: round;
      }

      .cls-11, .cls-5 {
        stroke-linecap: round;
      }

      .cls-11, .cls-8 {
        fill: #e9502f;
      }

      .cls-4, .cls-5, .cls-9 {
        fill: none;
      }

      .cls-6 {
        fill: #c12c14;
      }

      .cls-12, .cls-13 {
        stroke-width: 0px;
      }

      .cls-7, .cls-13 {
        fill: #fff;
      }
    </style>
  </defs>
  <rect class="cls-13" width="317" height="235"/>
  <g>
    <line class="cls-9" x1="106.4" y1="226" x2="181" y2="226"/>
    <g>
      <line class="cls-9" x1="107.1" y1="228.9" y2="228.9"/>
      <line class="cls-9" x1="180.2" y1="228.9" x2="317" y2="228.9"/>
    </g>
    <path class="cls-7" d="M112.9,231.6"/>
    <g>
      <path class="cls-7" d="M97.8,122.6h-1.5c-5.9-.7-10.1-6.2-9.4-12.1l1.2-9.9c.6-5.9,6.1-10.1,12-9.4h1.5c0,.1-3.9,31.3-3.9,31.3Z"/>
      <rect class="cls-10" x="87.2" y="104.1" width="31.5" height="6.4" transform="translate(-16.1 196.5) rotate(-83)"/>
      <path class="cls-7" d="M200.5,122.6h0c6.7-.9,11.5-7,10.6-13.6l-.9-6.9c-.9-6.7-7-11.5-13.6-10.6h0l3.9,31.1Z"/>
      <rect class="cls-10" x="192.2" y="91.8" width="6.4" height="31.5" transform="translate(-11.6 24.5) rotate(-7)"/>
      <path class="cls-8" d="M235.9,194.5c-10-23.3-23-31.2-31.2-34.2-1.2-.4-2.5-1-3.4-1.5-5.4-3.9-5.7-12.6-5.7-15.9v-1.2h0c.9-24.6-1-94.5-46.6-94.6-46.6.1-46.8,71.2-45.7,93.5h0c.2,4.2-.9,8.5-3,12.1-2,3.2-5.4,7-10.1,9.2-8.1,4.1-18.6,12.7-27.1,32.3-6.1,14.5,3.1,30.8,18.7,33.3,9,1.4,13.2,1,30.2,1.2h73.5c17.1,0,22.5.4,31.7-1.1,15.5-2.4,24.7-18.7,18.6-33.2Z"/>
      <path class="cls-6" d="M189,5.4l-2.5-2.4s-1.5,1-2.5,1.6c-.5-.2-1-.5-1.5-.9V1l-3.2-.6s-.6,1.4-1.2,2.4h-2l-1.5-2.7-3.2,1v3.1c-.6.2-1.2.6-1.9,1.1l-2.5-1.6-2.5,2.4s1,1.6,1.5,2.7h-.1c-.2.5-.4.7-.6,1.2h-3c0-.1-1,3.1-1,3.1,0,0,1.4.9,2.5,1.4-.1.9-.1,1.5-.1,2.4l-2.7,1.5,1,3.2s1.6,0,2.9-.1c.2.5.5,1.1.9,1.6l-1.6,2.7,2.5,2.4s1.4-.9,2.4-1.5c.2.2.5.4.9.6.2.1.5.2.9.5v3.2c.1,0,3.4.6,3.4.6,0,0,.6-1.4,1.2-2.5.6.1,1.4.1,2,.1l1.9,2.9,3.1-1.1s-.1-1.5-.2-2.7c.9-.2,1.5-.6,2.1-1.1l2.9,1.5,2.1-2.6s-.9-1.2-1.5-2c.1-.2.2-.4.4-.6.2-.4.5-.9.6-1.2l3.2-.2.5-3.2s-1.4-.5-2.5-1.1c.1-.9.1-1.5,0-2.4l2.7-1.7-1.1-3.1s-1.6.1-2.9.2c-.4-1-1-1.7-1.5-2.6l2-2.6ZM171.9,23.7c-4.4-2.9-5.5-8.7-2.6-13,2.9-4.4,8.7-5.5,13-2.6,4.4,2.9,5.5,8.7,2.6,13-2.9,4.2-8.6,5.5-13,2.6Z"/>
      <line class="cls-5" x1="96.4" y1="202.4" x2="107.3" y2="204"/>
      <line class="cls-5" x1="200" y1="202.4" x2="190.7" y2="203.9"/>
      <path class="cls-7" d="M187,176.4h-75.7c-4.6,0-8.2,3.5-7.5,7.4l9,48.2c.4,1.7,2.1,3.1,4.4,3.1h63.7c2.1,0,4.1-1.4,4.4-3.1l9-48.2c1-3.9-2.6-7.4-7.2-7.4Z"/>
      <g>
        <ellipse class="cls-12" cx="143.1" cy="96.1" rx="2.9" ry="5.4"/>
        <path class="cls-5" d="M132.7,103.5s7.2,9,15,9"/>
        <ellipse class="cls-12" cx="152.1" cy="96.1" rx="2.9" ry="5.4"/>
        <path class="cls-5" d="M162.2,103.9s-6.9,8.6-14.6,8.6"/>
        <path class="cls-5" d="M159.7,100.4s3.2,5,6.7,5.2"/>
      </g>
      <path class="cls-11" d="M147.3,54.9s-23.7-22.5-26.6-9.2c-2.9,13.4,18.1,14.2,18.1,14.2,0,0-17.5,13.4-10.5,16.5s16.2-11.4,16.2-11.4"/>
      <path class="cls-7" d="M224.7,96.1"/>
      <path class="cls-7" d="M285.6,40h-73c-3.6,0-6.5,4-6.5,9v26.3c0,5,3,9,6.5,9h2.1l-2.4,11.9c-.1.6.5,1.1,1,.7l18.5-12.6h53.7c3.6,0,6.5-4,6.5-9v-26.3c.1-4.9-2.9-9-6.4-9Z"/>
      <path class="cls-3" d="M51.7,147.3l2.5-4.6s-2-1.7-3.4-3c.2-.9.4-1.6.5-2.6l4.2-1.2-.2-5.2s-2.1-.4-4-.9c-.1-1-.4-2-.9-3l3.4-3.4-2.7-4.5s-2.9.9-4.5,1.4c-.6-.9-1.5-1.6-2.4-2.4l1.4-4.4-4.5-2.6s-2,2-3.2,3.2c-.1,0-.2-.1-.4-.1-.6-.2-1.4-.4-1.9-.5l-1.1-4.5h-5.2s-.6,2.5-1.1,4.2c-1.2.1-2.4.4-3.4.9l-3.4-3.4-4.5,2.7s.9,2.5,1.2,4.2c-.6.5-1.4,1.2-2,1.7l-4.7-1.2-2.5,4.6s1.7,1.6,3.1,2.9c-.2.5-.4,1-.5,1.5-.1.4-.2,1-.4,1.4l-5,1.5.4,5.2s2.4.4,4.1.9c.1,1.1.2,2,.5,3l-3.5,4,3,4.2s2.1-.9,4-1.5c.9,1,1.6,1.9,2.6,2.9l-1,4.9,4.7,2.1s1.4-1.7,2.5-3.1c.4.1.9.2,1.2.4.6.2,1.4.4,2.1.5l1.7,4.7,5.2-.2s.2-2.4.5-4.1c1.1-.1,2.4-.4,3.4-.9l3.7,3.4,4.4-2.9s-.9-2.5-1.5-4.1c1.2-1,2.1-2,3.1-3.2l4.2,1.1ZM17.5,129.3c2.5-7.6,10.6-11.7,18.1-9.2,7.6,2.5,11.7,10.6,9.2,18.1-2.5,7.6-10.6,11.7-18.1,9.2-7.6-2.5-11.7-10.6-9.2-18.1Z"/>
      <path class="cls-7" d="M220.3,131.8"/>
      <path class="cls-9" d="M194.8,112.4s-16.9,27.6-39.7,7"/>
      <circle class="cls-1" cx="153" cy="117.9" r="3.1"/>
      <g>
        <line class="cls-9" x1="220.1" y1="54.6" x2="278.5" y2="54.6"/>
        <line class="cls-9" x1="220.1" y1="67.2" x2="249.3" y2="67.2"/>
      </g>
      <path class="cls-7" d="M25.7,59.6h50.2c2.5,0,4.5,2.5,4.5,5.5v16c0,3-2,5.5-4.5,5.5h-1.5l1.6,7.2c.1.4-.2.6-.6.5l-12.7-7.6H25.7c-2.5,0-4.5-2.5-4.5-5.5v-16.1c0-3.1,2.1-5.5,4.5-5.5Z"/>
      <g>
        <line class="cls-9" x1="70.7" y1="68.3" x2="30.6" y2="68.3"/>
        <line class="cls-9" x1="70.7" y1="76" x2="50.8" y2="76"/>
      </g>
      <g>
        <path class="cls-2" d="M299.1,157.9c5.6-10.7,1.2-24-9.9-29.3-10.1-4.7-22.3-.9-27.8,8.9-2.9,5.2-3.4,10.9-1.9,16.2,1.1,4,.9,8.4-1.1,12l-.6,1.2c-1,1.9-.2,4.4,1.6,5.4l12.6,6.5c1.9,1,4.4.2,5.4-1.6l.6-1.2c1.9-3.7,5.2-6.2,9-7.6,5.1-1.7,9.5-5.2,12.1-10.4Z"/>
        <path class="cls-2" d="M270.7,185.8l-16.2-8.5c-.1-.1-.2-.4-.1-.5l1.4-2.5c.1-.1.4-.2.5-.1l16.2,8.5c.1.1.2.4.1.5l-1.4,2.5c0,.1-.2.2-.5.1Z"/>
        <path class="cls-2" d="M263.1,193.1l-10.2-5.4c-1.9-1-2.6-3.2-1.6-5.2l1.5-2.9,17.1,8.9-1.5,2.9c-1.1,2.1-3.5,2.7-5.2,1.7Z"/>
        <circle class="cls-2" cx="279.7" cy="148.8" r="13.6"/>
        <polyline class="cls-2" points="272.6 145.6 274.5 151.7 288.8 148.2"/>
        <line class="cls-4" x1="279.4" y1="119.5" x2="279.2" y2="111.1"/>
        <line class="cls-4" x1="292.1" y1="123.2" x2="298" y2="112.5"/>
        <line class="cls-4" x1="304" y1="131.7" x2="310.8" y2="127"/>
      </g>
    </g>
  </g>
</svg>