<?xml version="1.0" encoding="UTF-8"?>
<svg id="_레이어_1" data-name=" 레이어 1" xmlns="http://www.w3.org/2000/svg" version="1.1" viewBox="0 0 317 235">
  <defs>
    <style>
      .cls-1 {
        fill: #1b47aa;
      }

      .cls-1, .cls-2, .cls-3, .cls-4, .cls-5, .cls-6, .cls-7, .cls-8, .cls-9, .cls-10, .cls-11, .cls-12, .cls-13, .cls-14, .cls-15, .cls-16, .cls-17 {
        stroke-linecap: round;
      }

      .cls-1, .cls-2, .cls-3, .cls-4, .cls-5, .cls-18, .cls-19, .cls-7, .cls-20, .cls-9, .cls-11, .cls-21, .cls-12, .cls-13, .cls-14, .cls-15, .cls-17, .cls-22 {
        stroke: #000;
      }

      .cls-1, .cls-2, .cls-5, .cls-6, .cls-18, .cls-19, .cls-7, .cls-20, .cls-8, .cls-9, .cls-10, .cls-11, .cls-21, .cls-13, .cls-15, .cls-16, .cls-17, .cls-22 {
        stroke-miterlimit: 10;
      }

      .cls-2, .cls-3, .cls-19, .cls-10 {
        fill: #e9502f;
      }

      .cls-3, .cls-4, .cls-12, .cls-14 {
        stroke-linejoin: round;
      }

      .cls-4 {
        fill: #ddd;
        stroke-width: 1px;
      }

      .cls-5, .cls-6, .cls-18, .cls-8, .cls-14 {
        fill: none;
      }

      .cls-23, .cls-20 {
        fill: #5ff7ff;
      }

      .cls-23, .cls-24, .cls-25 {
        stroke-width: 0px;
      }

      .cls-6, .cls-10, .cls-16 {
        stroke: #231815;
      }

      .cls-7 {
        fill: #0027a3;
      }

      .cls-8 {
        stroke: #d12200;
      }

      .cls-24 {
        fill: #231815;
      }

      .cls-9 {
        fill: #281411;
      }

      .cls-11, .cls-25, .cls-16 {
        fill: #fff;
      }

      .cls-21 {
        fill: #f44d25;
      }

      .cls-12 {
        fill: #2757f2;
      }

      .cls-13 {
        fill: #010c28;
      }

      .cls-15 {
        fill: #d63221;
      }

      .cls-17 {
        fill: #ddc076;
      }

      .cls-22 {
        fill: #f7ba4d;
      }
    </style>
  </defs>
  <rect class="cls-25" x="-.2" y="-.2" width="317" height="235"/>
  <polyline class="cls-13" points="207.4 231.9 212.4 231.9 216.42 219.41 211.91 220.55"/>
  <polygon class="cls-7" points="218.1 203.2 207.4 231.9 202.6 231.9 214.4 201.8 218.1 203.2"/>
  <path class="cls-11" d="M195,101.2l-17.8,95.3c0,.07.03.17.1.3l117.9,18.3c.3,0,.6-.1.6-.5l13.1-107.9c0-.1-.1-.3-.1-.3l-113.72-5.51"/>
  <line class="cls-8" x1="273" y1="176.8" x2="295.4" y2="212.6"/>
  <polygon class="cls-7" points="257.1 209.2 258.9 231.9 264.5 231.9 261.7 210 257.1 209.2"/>
  <polygon class="cls-7" points="240.6 103.1 242.9 83.6 248.9 83.6 246.9 103.2 240.6 103.1"/>
  <polygon class="cls-7" points="299.9 209.1 312.4 211 311.5 217 299.3 215 299.9 209.1"/>
  <polygon class="cls-13" points="312.4 211.1 309 210.5 307.8 216.3 311.5 217 312.4 211.1"/>
  <path class="cls-22" d="M223.4,146.2c-6.1,8-15.1,8.5-20,1.5-4.6-6.7-3.6-17.8,2-25.2,5.6-7.4,14.1-8.6,19.2-2.7,5.3,6.4,4.8,18.2-1.3,26.3l.1.1Z"/>
  <path class="cls-21" d="M203.9,148.3l10.5-13.9-8.9-11.9s-10,12.8-1.7,25.8h.1Z"/>
  <path class="cls-12" d="M214.5,134.4l3-18.2s-6.7-.8-11.9,6.4l8.9,11.8Z"/>
  <path class="cls-9" d="M270.1,184"/>
  <polyline class="cls-8" points="228.4 117.7 241.7 138.4 252.3 140.3 262.8 173.9 269.6 170.8"/>
  <path class="cls-5" d="M257.4,121.8l-1.5,10.9c0,.1.1.9.1.9l5.1-7.4c.3-.3.6-.3.8.1l1.8,8.5h.1l4.8-12.6"/>
  <line class="cls-5" x1="252.8" y1="127.1" x2="269.6" y2="129.3"/>
  <polygon class="cls-15" points="285.8 119.5 276.7 119 267.3 187.6 262.8 187.5 267.5 198.4 274.6 188.1 270.5 187.9 285.8 119.5"/>
  <path class="cls-9" d="M295.9,215h3.4s.1,0,.1-.1l12.2-107.3h0c0-.1-2.7-1.1-2.7-1.1,0,0-.1,0-.1.1l-13,108.4q-.07,0,0,0h.1Z"/>
  <line class="cls-5" x1="193.6" y1="162.2" x2="219.8" y2="165"/>
  <line class="cls-5" x1="192.7" y1="167" x2="209.1" y2="168.8"/>
  <line class="cls-5" x1="191.5" y1="172.9" x2="211.9" y2="175"/>
  <path class="cls-2" d="M216.1,187.7c-5.1.1-6.7-.3-6.7-.3l3.8-5.3c.3-.3.3-1.7.1-2-.5-1.9-3.2-2.5-5.7,1l-1.1,2.4c-.8,1.5-2,2.8-3.7,3.4l-7.5,3c-2.7,1-4.7,3.2-5.6,6l-6.2,18.6-11.9,17.4h24.7l5.6-10.5s13.5,0,19.2-4.2c5.6-4.2.3-29.6-4.8-29.5h-.2Z"/>
  <path class="cls-19" d="M126.1,231.9"/>
  <polyline class="cls-18" points="0 231.9 31.7 231.9 317.6 231.9"/>
  <line class="cls-18" x1="39.8" y1="231.9" x2="65" y2="231.9"/>
  <path class="cls-2" d="M69.4,184.9l-12.2,47.3-41.3-.3,11.1-40.5c4.1-21.5,27.1-24.3,27.1-24.3,9.5-3.6,8-9.7,8-9.7,0,0-7.8-97.2,44.5-97.5,52.2.3,43.8,97.6,43.8,97.6,0,0-1.4,4.7,5.2,8.3,2.8,1.5,5.3,3.7,7,6.4,1.8,2.8,3.3,6.9,3.3,11.7-.5,27.6-1.1,48-1.1,48h-28.7l-69.6.3H26.1"/>
  <ellipse class="cls-24" cx="116.4" cy="105.9" rx="2.8" ry="5.1"/>
  <ellipse class="cls-24" cx="107.9" cy="105.9" rx="2.8" ry="5.1"/>
  <path class="cls-5" d="M90.1,115.4"/>
  <path class="cls-20" d="M107.2,115.4h-3.6c-3.2,0-5.7-2.5-5.7-5.7h0c0-.8.5-1.3,1.1-1.3h12.5c.6,0,1.1.5,1.1,1.1v.5c-.1,2.9-2.5,5.3-5.5,5.3l.1.1Z"/>
  <path class="cls-5" d="M96.4,110.5"/>
  <path class="cls-3" d="M110.3,71.8s14.1-27.6,20.8-16.5c5.3,8.9-5.6,15.4-10,17.5-.6.3-.6,1.3.1,1.4,4.8,1.8,16.9,6.7,12.7,10.8-5.2,5-18-5.1-18-5.1"/>
  <path class="cls-16" d="M167.8,234.6"/>
  <path class="cls-10" d="M137.9,150.2"/>
  <path class="cls-11" d="M194.5,182.4"/>
  <path class="cls-11" d="M-.6,229"/>
  <path class="cls-3" d="M197.1,93.7"/>
  <path class="cls-23" d="M123,115.4h-.8c-3.2,0-5.7-2.5-5.7-5.7h0c0-.8.5-1.3,1.1-1.3h9.7c.6,0,1.1.5,1.1,1.1v.5c-.1,2.9-2.5,5.3-5.5,5.3l.1.1Z"/>
  <circle class="cls-25" cx="125.1" cy="110.5" r="2"/>
  <circle class="cls-25" cx="107.9" cy="110.5" r="2"/>
  <path class="cls-6" d="M123,115.4h-1.5c-3.2,0-5.7-2.5-5.7-5.7h0c0-.8.5-1.3,1.1-1.3h10.3c.6,0,1.1.5,1.1,1.1v.5c0,2.9-2.4,5.3-5.3,5.3v.1Z"/>
  <path class="cls-5" d="M107.2,115.4h-3.6c-3.2,0-5.7-2.5-5.7-5.7h0c0-.8.5-1.3,1.1-1.3h12.5c.6,0,1.1.5,1.1,1.1v.5c-.1,2.9-2.5,5.3-5.5,5.3l.1.1Z"/>
  <line class="cls-6" x1="110.3" y1="108.4" x2="118.2" y2="108.4"/>
  <path class="cls-5" d="M91,111.9s5.3,16.5,23.3,10"/>
  <path class="cls-5" d="M79.3,108.4s9.5,7.6,14.5,0"/>
  <path class="cls-17" d="M65.13,202.1l25.17-6.7c.8-.3,1.5.3,1.7,1l7.1,35.7h-41.8l7.8-30h.03Z"/>
  <path class="cls-11" d="M62.2,212.8l-5,19.3h41.4l.4-22.6c0-.8-.6-1.4-1.4-1.3l-34.6,1.3-.9,3.3h.1Z"/>
  <rect class="cls-4" x="173.71" y="176.11" width="94.3" height="2.5" transform="translate(-49.54 261.76) rotate(-56.1)"/>
  <path class="cls-2" d="M215.9,193.4s-12.6,1-15.8,3.8c-3.3,2.8-3.4,19.1,4.1,20s13.7-1.9,13.7-1.9"/>
  <path class="cls-2" d="M213.3,180.1s.5,18.4-19.8,23.4"/>
  <path class="cls-1" d="M119.4,180.6s-4.2,24.7-3.7,28.5c.4,2.4,3.2,22,3.2,22l13.2.9v-23.4s-8.3-28.5-9.7-28.3"/>
  <path class="cls-1" d="M113.8,171.3c2.4-1.4,7.9-3.7,13.6.1.6.4,1,1.1,1,1.9-.1,2-1,7.6-4.1,9-3.9,1.8-9.7-1.9-11.4-8.8-.3-.9.1-1.8.9-2.3v.1Z"/>
  <path class="cls-11" d="M59.5,36.9H23.8c-4.3,0-7.9,3.9-7.9,8.8s3.6,8.8,7.9,8.8h30.8l12.8,5.7v-14.6c0-4.7-3.6-8.6-7.9-8.6v-.1Z"/>
  <circle class="cls-14" cx="34.1" cy="45.1" r="1.7"/>
  <circle class="cls-14" cx="41.7" cy="45.1" r="1.7"/>
  <circle class="cls-14" cx="49.3" cy="45.1" r="1.7"/>
  <path class="cls-22" d="M189,23.6l-26.6-10.7c-1.7-.6-2.5-2.7-1.9-4.3h0c.6-1.7,2.7-2.5,4.3-1.9l26.6,10.7c1.7.6,2.5,2.7,1.9,4.3h0c-.6,1.8-2.7,2.5-4.3,1.9Z"/>
  <path class="cls-22" d="M38.4,93.1l-26.1,15.1c-1.7.9-3.7.4-4.6-1.3v-.3c-1-1.7-.5-3.7,1.1-4.6l26.1-15.1c1.7-.9,3.7-.4,4.6,1.3v.3c1,1.7.5,3.7-1.1,4.6Z"/>
  <path class="cls-22" d="M49.6,127.1l-10.2,17.7c-.6,1.1-2.3,1.7-3.4.9h0c-1.1-.6-1.7-2.3-.9-3.4l10.2-17.7c.6-1.1,2.3-1.7,3.4-.9h0c1.1.8,1.5,2.3.9,3.4Z"/>
  <path class="cls-22" d="M176.5,43.4l-12.6,2.9c-1.1.3-2.4-.5-2.7-1.7h0c-.3-1.1.5-2.4,1.7-2.7l12.6-2.9c1.1-.3,2.4.5,2.7,1.7h0c.3,1.1-.4,2.4-1.7,2.7Z"/>
  <path class="cls-22" d="M206.7,52.3l-3.9-3.9c-.5-.5-.5-1.3,0-1.8h0c.5-.5,1.3-.5,1.8,0l3.9,3.9c.5.5.5,1.3,0,1.8h0c-.4.5-1.3.5-1.8,0Z"/>
  <polygon class="cls-13" points="248.9 83.6 253.34 83.6 251.52 103.63 246.9 103.2 248.9 83.6"/>
  <polyline class="cls-13" points="261.7 210 265.89 210.55 269.14 231.81 264.5 231.9"/>
</svg>