<?xml version="1.0" encoding="UTF-8"?>
<svg id="_레이어_1" data-name=" 레이어 1" xmlns="http://www.w3.org/2000/svg" version="1.1" viewBox="0 0 317 235">
  <defs>
    <style>
      .cls-1, .cls-2 {
        fill: #809ded;
      }

      .cls-1, .cls-2, .cls-3, .cls-4, .cls-5, .cls-6, .cls-7, .cls-8, .cls-9, .cls-10, .cls-11, .cls-12, .cls-13, .cls-14, .cls-15, .cls-16, .cls-17, .cls-18 {
        stroke-linecap: round;
      }

      .cls-1, .cls-2, .cls-3, .cls-4, .cls-5, .cls-6, .cls-10, .cls-11, .cls-14, .cls-15, .cls-16, .cls-17, .cls-18 {
        stroke: #000;
      }

      .cls-1, .cls-3, .cls-5, .cls-6, .cls-7, .cls-9, .cls-10, .cls-11, .cls-18 {
        stroke-miterlimit: 10;
      }

      .cls-2, .cls-4, .cls-8, .cls-12, .cls-13, .cls-14, .cls-15, .cls-16, .cls-17 {
        stroke-linejoin: round;
      }

      .cls-3, .cls-4 {
        fill: #e9502f;
      }

      .cls-5, .cls-7, .cls-14 {
        fill: none;
      }

      .cls-6 {
        fill: #f7ba23;
      }

      .cls-7, .cls-8, .cls-9, .cls-12, .cls-13 {
        stroke: #231815;
      }

      .cls-8, .cls-11, .cls-12, .cls-15, .cls-19 {
        fill: #fff;
      }

      .cls-9, .cls-13, .cls-16, .cls-18 {
        fill: #ffd629;
      }

      .cls-20 {
        fill: #231815;
      }

      .cls-20, .cls-19 {
        stroke-width: 0px;
      }

      .cls-10 {
        fill: #37db46;
      }

      .cls-12, .cls-17 {
        stroke-width: 1px;
      }

      .cls-17 {
        fill: #000;
      }
    </style>
  </defs>
  <rect class="cls-19" width="317" height="235"/>
  <g>
    <g>
      <path class="cls-18" d="M294,109.2s-12.9,16.5-37.6,20.1c-24.7,3.6-40.79-9.07-40.79-9.07"/>
      <path class="cls-10" d="M79,145.9h-6.1c-21.1,0-38.1,17.1-38.1,38.1v49.7h61.3"/>
      <path class="cls-18" d="M293.5,109.52s-1-17.32-2.9-22.82c-1.8-5.5-11.4-6-11.4-6-4.7-1-5-4.7-5-4.7,0,0-2.2-53.5-30.7-50.2-28.5,3.6-17.5,56.1-17.5,56.1,0,0,.9,2.2-1.7,4.3-2,1.8-3.8,3.8-4.9,6.4-1.9,4.9-3.8,13.2-3.6,27.6"/>
      <ellipse class="cls-20" cx="238.85" cy="51.95" rx="1.5" ry="2.8" transform="translate(-4.47 28.65) rotate(-6.8)"/>
      <ellipse class="cls-20" cx="243.56" cy="51.5" rx="1.5" ry="2.8" transform="translate(-4.38 29.2) rotate(-6.8)"/>
      <path class="cls-7" d="M241.8,57.1s5.5-3.3,5.6-1.2c.3,2.3-2.8,3.5-2.8,3.5"/>
      <path class="cls-13" d="M234.2,35.9s-3.6,4.2-1.7,5.2c1.2.6,2.3-.4,3.1-1.4.5-.6,1.4-.8,2.2-.4,1,.6,2.4,1.2,3.2.6,1.7-1,1.4-3.2-2-5.4"/>
      <path class="cls-15" d="M251.7,108.7l-11.2-18c-.1-.3-.5-.4-.9-.3l-22.7,6.8c-.5.1-.6.8-.4,1.2l19.2,28.1c.1.3.5.4.8.3l21.1-5c.5-.1.8-.8.4-1.2l-1.5-2"/>
      <path class="cls-16" d="M222,106.5s-.5,2.7.6,6.6c0,0-6.9,1.2-6.8,7"/>
      <path class="cls-14" d="M273.3,115.7"/>
      <path class="cls-9" d="M273.8,117.3"/>
      <path class="cls-18" d="M255.2,107.8s-2.9-4-5.4-2.3"/>
      <line class="cls-14" x1="273.8" y1="91.6" x2="273.3" y2="115.7"/>
      <path class="cls-13" d="M273.5,142.8"/>
      <path class="cls-3" d="M124.5,233.7"/>
      <path class="cls-4" d="M141.5,153.6s25.7,14.7,36.9,20.7c2.8,1.5,6.1-19,3.1-22.1-3.7-4.2-7.4-8.3-1.3-14.1,1.8-1.7,6.5-7,15.7-12.1,2.4-1.3,3.7-2.3,6-2,4,.4.1,3.5-4.5,9.1-.1.1,0,.3.1.3,3.5-1.5,21-9.3,25.2-3.7,4.1,5.6-1.3,10.1-18.5,17-4.3,1.7-7.3,5.6-7.7,10.4-.9,10.4,3.8,30.2-3.6,47.7-5.5,12.9-31.4,4.1-60.2-27.1"/>
      <path class="cls-3" d="M47.3,233.7c-2-43.8,13.7-62.7,13.7-62.7,3.7-6,14.8-16.2,17-22.7,3.5-10.1-.1-21.6,1.9-39.6,2-18.8,13.5-29.6,22.7-35.3,4.7-2.9,10.2-4.7,16-5.2.9-.1,1.8-.1,2.7-.4,7-1.2,45.8-3.8,41.4,81-.5,3.7,1.8,11.9,3.3,15.2,3.7,8.4,11.5,32.2,8.9,69.8"/>
      <ellipse class="cls-20" cx="148.46" cy="110.35" rx="5.5" ry="3.1" transform="translate(36.04 257.26) rotate(-89.2)"/>
      <ellipse class="cls-20" cx="157.18" cy="110.46" rx="5.5" ry="3.1" transform="translate(44.54 266.08) rotate(-89.2)"/>
      <circle class="cls-1" cx="108" cy="102.4" r="14.3"/>
      <circle class="cls-11" cx="108" cy="102.4" r="11"/>
      <path class="cls-14" d="M111.6,88.1s2.9-16.9,15.2-20.7"/>
      <path class="cls-5" d="M107.1,88s2.3-15.5,7.2-19.3"/>
      <line class="cls-14" x1="101.6" y1="197.9" x2="97.4" y2="233.7"/>
      <path class="cls-7" d="M132.8,112s2.6,17.5,16.7,14.1"/>
      <path class="cls-4" d="M138.3,80.6s11.5-25.3,22.1-22.9c10.6,2.3,1.9,17.6-7.2,25.2,0,0,13.8-8.1,16.9-1.4,3.1,6.6-4.9,9.8-24.4,6.3"/>
      <ellipse class="cls-17" cx="157.8" cy="130.2" rx="2.3" ry="3.2" transform="translate(-25.01 222.04) rotate(-66.2)"/>
      <path class="cls-14" d="M159.8,131.2s11.4,3.5,2.9-7.7"/>
      <ellipse class="cls-12" cx="232.72" cy="150.65" rx="7.9" ry="7.3" transform="translate(.97 302.79) rotate(-66.2)"/>
      <circle class="cls-8" cx="218.2" cy="169.4" r="4.7"/>
      <g>
        <path class="cls-6" d="M192.9,15.7c-4.1-5.8-12.3-7-18-2.7-5.2,4-6.4,11.5-2.8,17,1.9,2.9,4.9,4.7,8.1,5.4,2.4.5,4.6,1.8,6,3.7l.5.6c.8,1,2.2,1.3,3.2.5l6.8-4.9c1-.8,1.3-2.2.5-3.2l-.5-.6c-1.4-1.9-1.9-4.3-1.5-6.8.5-3.1-.2-6.2-2.3-9h0Z"/>
        <path class="cls-6" d="M199.9,38l-8.6,6.1c-.1.1-.4.1-.5-.1l-.8-1.2c-.1-.1-.1-.4.1-.5l8.6-6.1c.1-.1.4-.1.5.1l.8,1.2c.15.11,0,.4-.1.5Z"/>
        <path class="cls-6" d="M200.66,44.79l-3.36,2.31c-1.5,1.2-3.8.8-5-.8l-.4-.5,9.2-6.5.4.5c2.43,2.72-.84,4.99-.84,4.99Z"/>
        <circle class="cls-6" cx="182.9" cy="23.5" r="8.1"/>
        <polyline class="cls-6" points="179.3 26.3 183 26.9 185.1 18.5"/>
        <line class="cls-5" x1="167.4" y1="15.8" x2="163.1" y2="13.6"/>
        <line class="cls-5" x1="172.9" y1="10" x2="168.7" y2="4.2"/>
        <line class="cls-5" x1="180.5" y1="6.1" x2="179.8" y2="1.2"/>
      </g>
      <polyline class="cls-5" points=".8 233.7 26.1 233.7 316.2 233.7"/>
      <line class="cls-5" x1="34.7" y1="233.7" x2="60.9" y2="233.7"/>
      <path class="cls-11" d="M95.8,65.4l-39.1,16.6c-.9.4-1.9,0-2.3-.9l-9.5-22.1c-.4-.9,0-1.9.9-2.3l39.2-16.7c.9-.4,1.9,0,2.3.9l9.5,22.1c.3,1-.1,2-1,2.4Z"/>
      <polyline class="cls-11" points="44.9 57.7 70.3 61.3 86.3 40.1"/>
      <path class="cls-16" d="M274.2,116.5l-9.8-5.4c-.4-.3-.5-.3-.9-.9-.8-1.4-3.5-4.6-10-2.2-8.3,2.9-11.9,5.1-8.8,8.9,1.2,1.4,2.3,2.2,3.5,2.4,1.4.5,2.9.4,4.3-.1,2-.8,3.5-1.7,6.1-1,1,.3,2,.6,2.8,1.3l9.08,5.84"/>
      <path class="cls-14" d="M233.6,123.6s-4.21,2.38-6.73,2.5"/>
    </g>
    <path class="cls-2" d="M113.79,68.75s8.61-2.05,13.41-1.35c0,0-12.4,2-15.6,21.2,0,0-4-1.2-4.7-.4s2.29-13.25,6.89-19.45h0Z"/>
  </g>
  <path class="cls-14" d="M304.01,81.03c.8,10.51-3.24,20.45-10.34,28.58-10.37,11.9-27.26,19.95-45.03,20.33-12.35.26-23.75-3.26-32.96-9.33-13.6-8.96-22.41-23.48-22.41-39.58"/>
  <path class="cls-14" d="M248.64,32.11"/>
  <path class="cls-10" d="M70.2,153.19s-20.54,5.87-24.46,25.04"/>
</svg>