<?xml version="1.0" encoding="UTF-8"?>
<svg id="_레이어_1" data-name="레이어 1" xmlns="http://www.w3.org/2000/svg" version="1.1" viewBox="0 0 317 235">
  <defs>
    <style>
      .cls-1, .cls-2, .cls-3, .cls-4, .cls-5, .cls-6, .cls-7, .cls-8, .cls-9 {
        stroke: #000;
        stroke-miterlimit: 10;
      }

      .cls-1, .cls-2, .cls-4, .cls-5, .cls-6, .cls-7, .cls-8, .cls-9 {
        stroke-linecap: round;
      }

      .cls-1, .cls-10 {
        fill: #e9502f;
      }

      .cls-2 {
        fill: none;
      }

      .cls-3, .cls-11 {
        fill: #dbcdb7;
      }

      .cls-4 {
        fill: #ffaa45;
      }

      .cls-12 {
        fill: #231815;
      }

      .cls-12, .cls-10, .cls-13, .cls-14, .cls-11 {
        stroke-width: 0px;
      }

      .cls-5 {
        fill: #bcdae2;
      }

      .cls-6 {
        fill: #c12c14;
      }

      .cls-7, .cls-14 {
        fill: #5c5ce5;
      }

      .cls-13 {
        fill: #fff;
      }

      .cls-8 {
        fill: #3351ff;
      }

      .cls-9 {
        fill: #212120;
      }
    </style>
  </defs>
  <rect class="cls-13" width="317" height="235"/>
  <g>
    <circle class="cls-13" cx="253.8" cy="33" r="17.9"/>
    <circle class="cls-13" cx="280.1" cy="57.3" r="11.6"/>
    <g>
      <g>
        <g>
          <g>
            <path class="cls-10" d="M243.9,149.7l-137.9,81.3c4.4-63,13.8-84.9,19-92.3,2.4-3.4,3.9-7.4,4.5-11.6,2.2-14.4,9.1-45.4,27.8-64.4,10.5-10.6,24.5-17.4,43.6-15.8,40.9,3.5,44.9,58.8,42.2,99.4,0,1.4.2,2.5.8,3.3Z"/>
            <path class="cls-2" d="M243.9,149.7c-.5-.8-.8-1.9-.7-3.3,2.7-40.6-1.3-96-42.2-99.4-19.1-1.7-33.2,5.3-43.6,15.8-18.7,19-25.6,50-27.8,64.4-.6,4.1-2.1,8.1-4.5,11.6-5.2,7.4-14.6,29.4-19,92.3"/>
          </g>
          <path class="cls-3" d="M132.1,112.9l-65.9-10.7c-1.5-.2-2.7-1.8-2.4-3.3l12-76c.2-1.5,1.8-2.7,3.3-2.5l129.6,20.5c1.5.2,2.7,1.8,2.5,3.3l-.7,4.7"/>
          <rect class="cls-11" x="177.4" y="181" width="117.8" height="49.9"/>
          <path class="cls-10" d="M106.7,231h70.7v-49.9h44.1s13.8,11.3-.4,49.9h41.5s19-37.7,9.2-59.2c-9.8-21.5-31.2-23.1-31.2-23.1l-89.4,10"/>
          <path class="cls-8" d="M78.2,170.3v50.5h-27.1v6H18.3v-22.4c0-8.3-.4-15.7,1.8-23.6,2.9-11,8.6-23.3,19.2-26.1,1.4-.4,2.7-.5,4.1-.5h33.1c.8,0,1.4.7,1.4,1.4v14.6h.2Z"/>
          <polyline class="cls-2" points="106.7 220.8 78.2 220.8 78.2 128.1 88.8 128.1"/>
          <polyline class="cls-2" points="107.2 216.4 84.4 216.4 84.4 134.6 86.4 134.6"/>
          <path class="cls-5" d="M72.4,192.5h-6.5c-.8,0-1.5-.7-1.5-1.5v-30.7c0-.8.7-1.5,1.5-1.5h6.5c.8,0,1.5.7,1.5,1.5v30.7c-.1.9-.8,1.5-1.5,1.5Z"/>
          <path class="cls-5" d="M58.4,158.9h-11.6c-8.4,0-15.9,5.2-18.4,13.2-1.4,4.5-2.5,10.5-2.4,18.4,0,1.2.9,2.1,2.1,2.1h30.2c1.1,0,1.9-.8,1.9-1.9v-29.9c0-1.1-.8-1.9-1.9-1.9Z"/>
          <line class="cls-2" x1="60.2" y1="198.7" x2="60.2" y2="216.2"/>
          <path class="cls-9" d="M60.2,210.6h-2.8c-.4,0-.7-.4-.7-.7v-5.2c0-.4.4-.7.7-.7h2.8v6.6Z"/>
          <path class="cls-1" d="M120.5,161.6c-68.1,21.1-24-49.5-19-53.5l24.9,3.9s-7.1,13.4,3.1,14.5"/>
          <line class="cls-2" x1="78.2" y1="220.8" x2="83.1" y2="220.8"/>
          <path class="cls-9" d="M27.7,198.7h-2.5c-.2,0-.5-.2-.5-.5v-14c0-.2.2-.5.5-.5h2.5c.2,0,.5.2.5.5v14c.1.2-.1.5-.5.5Z"/>
          <path class="cls-9" d="M24.8,193.7h-1.4c-.5,0-.9-.5-.9-.9v-3.1c0-.5.5-.9.9-.9h1.4v5Z"/>
          <g>
            <path class="cls-10" d="M243.9,149.7l-137.9,81.3c4.4-63,13.8-84.9,19-92.3,2.4-3.4,3.9-7.4,4.5-11.6,3.5-22.4,18-84.8,71.6-80.2,40.9,3.5,44.9,58.8,42.2,99.4-.1,1.4.1,2.5.7,3.3Z"/>
            <path class="cls-2" d="M243.9,149.7c-.5-.8-.8-1.9-.7-3.3,2.7-40.6-1.3-96-42.2-99.4-53.5-4.6-68,57.8-71.6,80.2-.6,4.1-2.1,8.1-4.5,11.6-5.2,7.4-14.6,29.4-19,92.3"/>
          </g>
          <path class="cls-6" d="M267.5,13.1l-4.7-2.5s-1.9,2-3.1,3.4c-.8-.2-1.8-.5-2.6-.6l-1.3-4.2-5.4.4s-.5,2.4-.8,4.1c-1.1.2-2,.5-3.1.8l-3.5-3.5-4.6,2.8s.8,2.9,1.4,4.7c-.8.7-1.7,1.5-2.4,2.5l-4.5-1.3-2.7,4.6s2.1,2.1,3.4,3.4c0,.1-.1.2-.1.4-.2.7-.4,1.3-.6,2l-4.6,1.2v5.3s2.5.6,4.4,1.1c.2,1.2.5,2.4.8,3.5l-3.4,3.5,2.8,4.6s2.6-.8,4.4-1.3c.6.7,1.2,1.4,1.9,2l-1.2,4.8,4.7,2.5s1.7-1.9,2.9-3.3c.5.2,1.1.4,1.5.6l1.4.4,1.7,5,5.3-.4s.5-2.4.7-4.1c1.1-.1,2.1-.4,3.2-.7l4.1,3.5,4.4-3.1s-.8-2.2-1.5-4c1.1-.8,2-1.7,2.8-2.6l5.1.9,2.1-5s-1.8-1.4-3.2-2.5c.1-.4.4-.8.5-1.2.2-.7.5-1.4.6-2.2l5-1.9-.7-5.3s-2.4-.4-4.1-.6c-.2-1.2-.5-2.4-.9-3.4l3.4-3.8-3.1-4.4s-2.5.9-4.2,1.5c-1.1-1.2-2.1-2.2-3.4-3.2l1.3-4.6ZM249.3,48.4c-7.8-2.5-12.1-10.8-9.7-18.6,2.5-7.8,10.8-12.1,18.6-9.7,7.8,2.5,12.1,10.8,9.7,18.6s-10.8,12.1-18.6,9.7Z"/>
          <path class="cls-6" d="M288.6,43.9l-2.9-1.5s-1.2,1.3-1.9,2.1c-.6-.1-1.1-.2-1.7-.4l-.8-2.6-3.3.2s-.2,1.4-.5,2.5c-.6.1-1.3.4-1.9.5l-2.1-2.1-2.8,1.8s.6,1.8.8,2.8c-.6.5-1.1.9-1.5,1.5l-2.7-.8-1.7,2.8s1.3,1.3,2.1,2.1q0,.1-.1.2c-.1.5-.2.8-.4,1.3l-2.8.7v3.3s1.5.4,2.7.7c.1.7.2,1.4.5,2.1l-2.1,2.1,1.8,2.8s1.5-.5,2.7-.8c.4.5.7.8,1.2,1.3l-.7,3.1,2.9,1.5s1.1-1.2,1.8-2c.4.1.6.2.9.4.2.1.6.1.8.2l.9,3.1,3.3-.2s.2-1.4.5-2.6c.7-.1,1.3-.2,1.9-.4l2.5,2.2,2.7-1.9s-.6-1.4-.9-2.5c.6-.5,1.2-1.1,1.8-1.7l3.2.6,1.3-3.1s-1.1-.8-2-1.5c.1-.2.2-.5.2-.7.1-.5.2-.9.4-1.4l3.1-1.2-.4-3.3s-1.4-.2-2.6-.4c-.1-.7-.4-1.4-.6-2.1l2.1-2.4-1.9-2.7s-1.5.6-2.6.9c-.6-.7-1.3-1.4-2.1-2l.9-2.8ZM277.4,65.7c-4.8-1.5-7.4-6.7-5.9-11.4,1.5-4.8,6.7-7.4,11.4-5.9,4.8,1.5,7.4,6.7,5.9,11.4-1.5,4.7-6.7,7.4-11.4,5.9Z"/>
          <path class="cls-7" d="M225.2,72.2s-26.3,17.2-70.5,2.4c-.7-.2-1.4-.5-2.1-.8-2.7-1.2-12-4.5-19.7-.9-.9.4-1.7-.7-.9-1.4,3.4-3.7,10-8.5,21.5-8.4,0,0,40.7-2.8,82.5,12.4"/>
          <ellipse class="cls-12" cx="171.3" cy="98.6" rx="8" ry="4.4" transform="translate(31.4 238.2) rotate(-74.9)"/>
          <ellipse class="cls-12" cx="184.3" cy="102.3" rx="8" ry="4.4" transform="translate(37.4 253.4) rotate(-74.9)"/>
          <path class="cls-2" d="M166.7,114.4s12.5,17,30.2-.4"/>
          <path class="cls-2" d="M194.2,108.1s2.4,8.5,8.6,8.8"/>
          <path class="cls-2" d="M229.3,149.6c5.2-3.5,72.1.6,33.5,81.5"/>
          <path class="cls-2" d="M216.2,177.9s21,3.2,5.1,53.2"/>
          <polyline class="cls-2" points="274.1 181 295.2 181 295.2 231"/>
          <polyline class="cls-2" points="221.6 181.2 177.7 181.3 177.4 231"/>
          <polyline class="cls-2" points="18.3 226.8 11.9 226.8 11.9 231 39.4 231 305.8 231"/>
          <line class="cls-2" x1="181.2" y1="94.6" x2="192.4" y2="91.6"/>
          <path class="cls-1" d="M177.4,231h-71.4,71.4Z"/>
          <path class="cls-1" d="M106,231"/>
          <rect class="cls-11" x="178.4" y="182" width="15.9" height="15.3"/>
          <g>
            <path class="cls-14" d="M201,47.6c17.7,1.5,28.5,12.7,34.9,28.3-.7-.4-22.3-10.3-46.3-11.3-21-.9-31.9-2-31.9-2,10.4-10.6,24.3-16.6,43.4-15Z"/>
            <g>
              <line class="cls-2" x1="235.9" y1="75.9" x2="235.8" y2="75.9"/>
              <path class="cls-2" d="M235.8,75.9c-.7-.4-22.3-10.3-46.3-11.3-21-.9-31.9-2-31.9-2,10.5-10.6,24.3-16.6,43.4-15,17.8,1.5,28.6,12.7,34.9,28.3Z"/>
            </g>
          </g>
          <polyline class="cls-4" points="137.7 30 133.8 53.4 141.1 48.2 146.1 55.1 149.9 32.1"/>
        </g>
        <line class="cls-2" x1="130.6" y1="5.2" x2="139.8" y2="18.8"/>
        <line class="cls-2" x1="170.3" y1="11.2" x2="157.6" y2="21.4"/>
        <line class="cls-2" x1="151.5" y1="4" x2="148.4" y2="20.1"/>
      </g>
      <line class="cls-2" x1="271.6" y1="77.9" x2="274.7" y2="91.6"/>
      <line class="cls-2" x1="274" y1="98.6" x2="267.5" y2="110.1"/>
      <line class="cls-2" x1="249.1" y1="116.9" x2="261.1" y2="114.1"/>
    </g>
  </g>
</svg>