<svg width="35" height="35" viewBox="0 0 35 35" fill="none" xmlns="http://www.w3.org/2000/svg">
<path fill-rule="evenodd" clip-rule="evenodd" d="M29.1666 16.0416C29.1666 11.9452 29.1666 9.89706 28.1835 8.42576C27.7579 7.78882 27.211 7.24194 26.5741 6.81635C25.1028 5.83325 23.0546 5.83325 18.9583 5.83325H16.0416C11.9452 5.83325 9.89706 5.83325 8.42576 6.81635C7.78882 7.24194 7.24194 7.78882 6.81635 8.42576C5.83325 9.89706 5.83325 11.9452 5.83325 16.0416C5.83325 20.1379 5.83325 22.1861 6.81635 23.6574C7.24194 24.2944 7.78882 24.8412 8.42576 25.2668C9.71106 26.1256 11.4366 26.2342 14.5833 26.2479V26.2499L16.6055 30.2944C16.974 31.0314 18.0258 31.0314 18.3943 30.2944L20.4166 26.2499V26.2479C23.5632 26.2342 25.2888 26.1256 26.5741 25.2668C27.211 24.8412 27.7579 24.2944 28.1835 23.6574C29.1666 22.1861 29.1666 20.1379 29.1666 16.0416ZM11.6666 17.4999C12.472 17.4999 13.1249 16.847 13.1249 16.0416C13.1249 15.2362 12.472 14.5833 11.6666 14.5833C10.8612 14.5833 10.2083 15.2362 10.2083 16.0416C10.2083 16.847 10.8612 17.4999 11.6666 17.4999ZM18.9583 16.0416C18.9583 16.847 18.3053 17.4999 17.4999 17.4999C16.6945 17.4999 16.0416 16.847 16.0416 16.0416C16.0416 15.2362 16.6945 14.5833 17.4999 14.5833C18.3053 14.5833 18.9583 15.2362 18.9583 16.0416ZM24.7916 16.0416C24.7916 16.847 24.1387 17.4999 23.3333 17.4999C22.5278 17.4999 21.8749 16.847 21.8749 16.0416C21.8749 15.2362 22.5278 14.5833 23.3333 14.5833C24.1387 14.5833 24.7916 15.2362 24.7916 16.0416Z" fill="white"/>
</svg>
