<svg width="25" height="25" viewBox="0 0 25 25" fill="none" xmlns="http://www.w3.org/2000/svg">
<path d="M18.5312 21.0938C18.5312 21.508 18.867 21.8438 19.2812 21.8438C19.6955 21.8438 20.0312 21.508 20.0312 21.0938H18.5312ZM19.2812 19.0104H20.0312H19.2812ZM15.7396 14.8438V14.0938V14.8438ZM9.54167 14.8438V14.0938V14.8438ZM6 19.0104H5.25H6ZM5.25 21.0938C5.25 21.508 5.58579 21.8438 6 21.8438C6.41421 21.8438 6.75 21.508 6.75 21.0938H5.25ZM20.0312 21.0938V19.0104H18.5312V21.0938H20.0312ZM20.0312 19.0104C20.0312 17.7423 19.6041 16.5063 18.8154 15.5784L17.6725 16.5499C18.2121 17.1847 18.5312 18.0684 18.5312 19.0104H20.0312ZM18.8154 15.5784C18.0235 14.6468 16.9208 14.0938 15.7396 14.0938V15.5938C16.437 15.5938 17.136 15.9187 17.6725 16.5499L18.8154 15.5784ZM15.7396 14.0938H9.54167V15.5938H15.7396V14.0938ZM9.54167 14.0938C8.36047 14.0938 7.25777 14.6468 6.46588 15.5784L7.60878 16.5499C8.14527 15.9187 8.84425 15.5938 9.54167 15.5938V14.0938ZM6.46588 15.5784C5.67713 16.5063 5.25 17.7423 5.25 19.0104H6.75C6.75 18.0684 7.06914 17.1847 7.60878 16.5499L6.46588 15.5784ZM5.25 19.0104V21.0938H6.75V19.0104H5.25ZM15.75 7.42188C15.75 8.94929 14.5118 10.1875 12.9844 10.1875V11.6875C15.3402 11.6875 17.25 9.77771 17.25 7.42188H15.75ZM12.9844 10.1875C11.457 10.1875 10.2188 8.94929 10.2188 7.42188H8.71875C8.71875 9.77771 10.6285 11.6875 12.9844 11.6875V10.1875ZM10.2188 7.42188C10.2188 5.89446 11.457 4.65625 12.9844 4.65625V3.15625C10.6285 3.15625 8.71875 5.06604 8.71875 7.42188H10.2188ZM12.9844 4.65625C14.5118 4.65625 15.75 5.89446 15.75 7.42188H17.25C17.25 5.06604 15.3402 3.15625 12.9844 3.15625V4.65625Z" fill="black"/>
</svg>
