<svg xmlns="http://www.w3.org/2000/svg" viewBox="0 0 306.81 74.2"><defs><style>.cls-1{fill:#fff;}.cls-2{fill:#393b3c;}.cls-3{fill:#757776;}.cls-4{fill:#397fc3;}</style></defs><g id="레이어_2" data-name="레이어 2"><g id="Layer_1" data-name="Layer 1"><rect class="cls-1" x="161.32" y="5.72" width="10.05" height="62.76"/><path class="cls-1" d="M149.05,35.38a39.1,39.1,0,0,1-2-7,35.93,35.93,0,0,1-.65-6.5V7.51H137V21.88a31.45,31.45,0,0,1-1.08,8,67.51,67.51,0,0,1-2.65,8,34.33,34.33,0,0,1-3.27-8.4,34.48,34.48,0,0,1-.9-7.68V7.51h-9.4V21.88A28.3,28.3,0,0,1,118,31.46a52.78,52.78,0,0,1-3.74,8.29,72.62,72.62,0,0,1-5.31,8l5.6,5a22.83,22.83,0,0,0,3.09-3.52q1.5-2.07,2.87-4.37c.81-1.54,1.55-3.08,2.22-4.64a42.48,42.48,0,0,0,1.66-4.41,12.78,12.78,0,0,0,.82,2.19,24.86,24.86,0,0,0,1.47,2.69c.48.91,1,1.75,1.44,2.51a14.89,14.89,0,0,0,1.15,1.66q-.93,1.43-1.83,2.58c-.6.76-1.07,1.34-1.4,1.72l5.31,4.74a51.93,51.93,0,0,0,6.54-8.51,32.49,32.49,0,0,0,3.87-8.65,15.59,15.59,0,0,0,1.08,3.09A42,42,0,0,0,145,43.92a48.55,48.55,0,0,0,2.84,4.63,52.16,52.16,0,0,0,3.2,4.2l5.38-4.52a37.46,37.46,0,0,1-4.23-6A43.09,43.09,0,0,1,149.05,35.38Z"/><path class="cls-1" d="M214.68,25.61h-5.32a32.75,32.75,0,0,0-1.54-6.68,20.81,20.81,0,0,0-3-5.74,14.68,14.68,0,0,0-4.56-3.95,12.72,12.72,0,0,0-6.35-1.51q-5.25,0-8.3,2.69a18.48,18.48,0,0,0-4.7,6.43,28.45,28.45,0,0,0-2.19,7.72,50.7,50.7,0,0,0-.54,6.57c0,1.15.07,2.55.22,4.2a32.07,32.07,0,0,0,.86,5.06,28.14,28.14,0,0,0,1.54,5.35,17.79,17.79,0,0,0,2.76,4.71,14.85,14.85,0,0,0,4.31,3.41,12.85,12.85,0,0,0,6,1.32,11.5,11.5,0,0,0,7.75-2.51,18.93,18.93,0,0,0,4.67-6,28.58,28.58,0,0,0,2.33-7,48.46,48.46,0,0,0,.83-5.6,4,4,0,0,1,.07-.79,4.16,4.16,0,0,0,.07-.85h5V67.76h8.9v-62h-8.9ZM201,35.7a27.76,27.76,0,0,1-.79,5.42A12.36,12.36,0,0,1,198,45.57a4.79,4.79,0,0,1-4,1.87,4.74,4.74,0,0,1-3.92-1.87A11.63,11.63,0,0,1,188,41.12,28.54,28.54,0,0,1,187,35.7q-.21-2.84-.21-4.56c0-1.2.07-2.68.21-4.45a26.93,26.93,0,0,1,.94-5.17,11.45,11.45,0,0,1,2.11-4.28A4.82,4.82,0,0,1,194,15.41a4.92,4.92,0,0,1,4.09,1.83,12.5,12.5,0,0,1,2.15,4.28,24,24,0,0,1,.76,5.17c.07,1.77.11,3.25.11,4.45S201.06,33.81,201,35.7Z"/><rect class="cls-1" x="229.11" y="5.72" width="9.05" height="62.76"/><path class="cls-1" d="M251.58,40.19q1.59-.72,4.6-2.34a75.31,75.31,0,0,0,6.61-4.05,78.9,78.9,0,0,0,6.82-5.1,41.78,41.78,0,0,0,6-6,46.06,46.06,0,0,0,6,6.06,65.34,65.34,0,0,0,6.46,4.78,54.72,54.72,0,0,0,6.11,3.84l5.31,2.84c.76-1,1.57-2.12,2.4-3.2s1.64-2.16,2.41-3.27q-1.94-1-5.85-3.16a62.79,62.79,0,0,1-7.79-5.09,40.62,40.62,0,0,1-6.86-6.25,10.6,10.6,0,0,1-2.91-7V6H270v6.24A10.71,10.71,0,0,1,267.38,19,35.17,35.17,0,0,1,261,25.11a64.57,64.57,0,0,1-7.75,5q-4,2.19-6.75,3.55c.91,1.15,1.77,2.23,2.58,3.23S250.72,39,251.58,40.19Z"/><rect class="cls-1" x="244.33" y="52.75" width="62.47" height="6.82"/><path class="cls-1" d="M87.39,65.75,73.68,27.3a6.29,6.29,0,0,0-6-4.26H50.52a6.34,6.34,0,0,0,.24,12.68H62.21a1.22,1.22,0,0,1,1.08.63h0L71.63,59c.44,2-1,2.35-1.84,2.39H69.2l-41.86,0a6.37,6.37,0,0,0,0,12.74l54,0a6.71,6.71,0,0,0,5.17-2.65A6.4,6.4,0,0,0,87.39,65.75Z"/><path class="cls-1" d="M.33,8.44,14,46.89a6.29,6.29,0,0,0,6,4.27H37.2A6.34,6.34,0,0,0,37,38.49H25.51a1.25,1.25,0,0,1-1.08-.63v0l-8.33-22.7a1.75,1.75,0,0,1,1.84-2.38h.59l41.86,0A6.37,6.37,0,0,0,60.36,0l-54,0A6.75,6.75,0,0,0,1.19,2.7,6.38,6.38,0,0,0,.33,8.44Z"/><rect class="cls-2" x="161.32" y="5.72" width="10.05" height="62.76"/><path class="cls-2" d="M149.05,35.38a39.1,39.1,0,0,1-2-7,35.93,35.93,0,0,1-.65-6.5V7.51H137V21.88a31.45,31.45,0,0,1-1.08,8,67.51,67.51,0,0,1-2.65,8,34.33,34.33,0,0,1-3.27-8.4,34.48,34.48,0,0,1-.9-7.68V7.51h-9.4V21.88A28.3,28.3,0,0,1,118,31.46a52.78,52.78,0,0,1-3.74,8.29,72.62,72.62,0,0,1-5.31,8l5.6,5a22.83,22.83,0,0,0,3.09-3.52q1.5-2.07,2.87-4.37c.81-1.54,1.55-3.08,2.22-4.64a42.48,42.48,0,0,0,1.66-4.41,12.78,12.78,0,0,0,.82,2.19,24.86,24.86,0,0,0,1.47,2.69c.48.91,1,1.75,1.44,2.51a14.89,14.89,0,0,0,1.15,1.66q-.93,1.43-1.83,2.58c-.6.76-1.07,1.34-1.4,1.72l5.31,4.74a51.93,51.93,0,0,0,6.54-8.51,32.49,32.49,0,0,0,3.87-8.65,15.59,15.59,0,0,0,1.08,3.09A42,42,0,0,0,145,43.92a48.55,48.55,0,0,0,2.84,4.63,52.16,52.16,0,0,0,3.2,4.2l5.38-4.52a37.46,37.46,0,0,1-4.23-6A43.09,43.09,0,0,1,149.05,35.38Z"/><path class="cls-2" d="M214.68,25.61h-5.32a32.75,32.75,0,0,0-1.54-6.68,20.81,20.81,0,0,0-3-5.74,14.68,14.68,0,0,0-4.56-3.95,12.72,12.72,0,0,0-6.35-1.51q-5.25,0-8.3,2.69a18.48,18.48,0,0,0-4.7,6.43,28.45,28.45,0,0,0-2.19,7.72,50.7,50.7,0,0,0-.54,6.57c0,1.15.07,2.55.22,4.2a32.07,32.07,0,0,0,.86,5.06,28.14,28.14,0,0,0,1.54,5.35,17.79,17.79,0,0,0,2.76,4.71,14.85,14.85,0,0,0,4.31,3.41,12.85,12.85,0,0,0,6,1.32,11.5,11.5,0,0,0,7.75-2.51,18.93,18.93,0,0,0,4.67-6,28.58,28.58,0,0,0,2.33-7,48.46,48.46,0,0,0,.83-5.6,4,4,0,0,1,.07-.79,4.16,4.16,0,0,0,.07-.85h5V67.76h8.9v-62h-8.9ZM201,35.7a27.76,27.76,0,0,1-.79,5.42A12.36,12.36,0,0,1,198,45.57a4.79,4.79,0,0,1-4,1.87,4.74,4.74,0,0,1-3.92-1.87A11.63,11.63,0,0,1,188,41.12,28.54,28.54,0,0,1,187,35.7q-.21-2.84-.21-4.56c0-1.2.07-2.68.21-4.45a26.93,26.93,0,0,1,.94-5.17,11.45,11.45,0,0,1,2.11-4.28A4.82,4.82,0,0,1,194,15.41a4.92,4.92,0,0,1,4.09,1.83,12.5,12.5,0,0,1,2.15,4.28,24,24,0,0,1,.76,5.17c.07,1.77.11,3.25.11,4.45S201.06,33.81,201,35.7Z"/><rect class="cls-2" x="229.11" y="5.72" width="9.05" height="62.76"/><path class="cls-2" d="M251.58,40.19q1.59-.72,4.6-2.34a75.31,75.31,0,0,0,6.61-4.05,78.9,78.9,0,0,0,6.82-5.1,41.78,41.78,0,0,0,6-6,46.06,46.06,0,0,0,6,6.06,65.34,65.34,0,0,0,6.46,4.78,54.72,54.72,0,0,0,6.11,3.84l5.31,2.84c.76-1,1.57-2.12,2.4-3.2s1.64-2.16,2.41-3.27q-1.94-1-5.85-3.16a62.79,62.79,0,0,1-7.79-5.09,40.62,40.62,0,0,1-6.86-6.25,10.6,10.6,0,0,1-2.91-7V6H270v6.24A10.71,10.71,0,0,1,267.38,19,35.17,35.17,0,0,1,261,25.11a64.57,64.57,0,0,1-7.75,5q-4,2.19-6.75,3.55c.91,1.15,1.77,2.23,2.58,3.23S250.72,39,251.58,40.19Z"/><rect class="cls-2" x="244.33" y="52.75" width="62.47" height="6.82"/><path class="cls-3" d="M87.39,65.75,73.68,27.3a6.29,6.29,0,0,0-6-4.26H50.52a6.34,6.34,0,0,0,.24,12.68H62.21a1.22,1.22,0,0,1,1.08.63h0L71.63,59c.44,2-1,2.35-1.84,2.39H69.2l-41.86,0a6.37,6.37,0,0,0,0,12.74l54,0a6.71,6.71,0,0,0,5.17-2.65A6.4,6.4,0,0,0,87.39,65.75Z"/><path class="cls-4" d="M.33,8.44,14,46.89a6.29,6.29,0,0,0,6,4.27H37.2A6.34,6.34,0,0,0,37,38.49H25.51a1.25,1.25,0,0,1-1.08-.63v0l-8.33-22.7a1.75,1.75,0,0,1,1.84-2.38h.59l41.86,0A6.37,6.37,0,0,0,60.36,0l-54,0A6.75,6.75,0,0,0,1.19,2.7,6.38,6.38,0,0,0,.33,8.44Z"/></g></g></svg>