<?xml version="1.0" encoding="UTF-8"?>
<svg id="_레이어_1" data-name="레이어 1" xmlns="http://www.w3.org/2000/svg" version="1.1" viewBox="0 0 317 235">
  <defs>
    <style>
      .cls-1, .cls-2, .cls-3, .cls-4, .cls-5, .cls-6, .cls-7, .cls-8, .cls-9 {
        stroke: #231815;
        stroke-linecap: round;
      }

      .cls-1, .cls-3, .cls-4, .cls-5, .cls-9 {
        stroke-miterlimit: 10;
      }

      .cls-1, .cls-10 {
        fill: #231815;
      }

      .cls-2, .cls-4 {
        fill: #e9502f;
      }

      .cls-2, .cls-6, .cls-7, .cls-8 {
        stroke-linejoin: round;
      }

      .cls-3, .cls-8 {
        fill: none;
      }

      .cls-10, .cls-11 {
        stroke-width: 0px;
      }

      .cls-5 {
        fill: #ccd9ff;
      }

      .cls-6 {
        fill: #5c5ce5;
      }

      .cls-11, .cls-9 {
        fill: #fff;
      }

      .cls-7 {
        fill: #f4ac0c;
      }
    </style>
  </defs>
  <rect class="cls-11" x="0" y="0" width="317" height="235"/>
  <g>
    <path class="cls-6" d="M19.9,94.4l43.6-42.1,16.4,14.7,46.9-38.1,5.3,23.7,33.7-37.4-5.6-4.6,27.8-6-6.6,26.2s-7.6-7.6-8.2-8.2c-.1.1-.2.1-.2.1l-42,34.8-8.7-20.8-41.6,36.7-16.2-14.4-42,36.9"/>
    <path class="cls-2" d="M97.2,186c3.6,12.8,9.7,34.5,9.7,34.5,0,0-53.1-28-53.4-32.8-.8-16.4,17-47.6,22.5-56.7,1-1.7,1.5-3.6,1.4-5.6h0c-.2-5.3-.6-10.6-1.6-15.9-1.7-9.8-1-33.7,3-33.7s7.6,7.3,9.3,11.5c.2.7,1,1.2,1.7,1h.9c0-.1,11.9-1.5,11.9-1.5,2.2-.2,4.4.7,5.6,2.5l8.3,12.6c1.9,2.9,2.2,6.5.8,9.6-1.7,3.8-4.7,8.8-9.6,11.9-3.2,2-4.6,5.6-5.9,9.1-5.1,14.1-13.4,42.9-13.4,42.9,0,0,7.3,5,8.8,10.3Z"/>
    <path class="cls-4" d="M241.6,203.6l.6,30.8h-40.3l-69.6-.3h-28.7s-3.7-20.5-1.2-47.9"/>
    <path class="cls-4" d="M223.6,234l12.4-10.6c8.6-7.4,12.8-18.6,10.8-29.7-4.1-21.4-27-24.2-27-24.2-8.9-1.6-8-9.7-8-9.7,0,0,7.8-97.1-44.4-97.3-52.2.2-43.9,97.5-43.9,97.5,0,0,1.7,5.9-7.9,9.4"/>
    <ellipse class="cls-10" cx="157.3" cy="108.8" rx="2.8" ry="5.1"/>
    <ellipse class="cls-10" cx="165.9" cy="108.8" rx="2.8" ry="5.1"/>
    <path class="cls-3" d="M183.7,117.7"/>
    <path class="cls-3" d="M177.3,112.7"/>
    <path class="cls-2" d="M165.5,69.8s-22.5-21.3-25.1-8.7c-2.7,12.6,17.1,13.4,17.1,13.4,0,0-16.4,12.6-10,15.6,6.6,3,15.3-10.8,15.3-10.8"/>
    <path class="cls-9" d="M138.2,236.7"/>
    <path class="cls-1" d="M154.5,117.7s3.2.9,7.4,1c4.7.2,10.8-.6,14.2-4.5.5-.6,1.4-.3,1.5.3.6,3.8,1,12.2-6.9,12.6-10.3.5-7.8-8.3-7.8-8.3"/>
    <path class="cls-5" d="M142.6,157.1c2.1-6.6-4.2-26.3-31.6-10.4-18.5,10.8-12.4,51.5,2.5,71.4.5.7,1.3,1,2.1,1h43.5c1.2,0,1.9-1.3,1.2-2.3-3.8-5.2-12.5-18.3-11.8-26.4"/>
    <path class="cls-4" d="M135.9,152.4"/>
    <path class="cls-4" d="M172.2,234.2s-7.5-26.4-17.6-31.4c-14.2-6.9-21.8-18.9-19.9-25.7,1-3.7,2.9-5.1,4.5-5.6.7-.2.8-1,.2-1.5-1.7-1.2-3.2-2.4-4.4-3.8-6-6.5-.7-17,8.1-16.2,20.1,2,35.9,24.3,44.2,39,0,0,13.4,20.5,16.7,31"/>
    <path class="cls-9" d="M114.8,164.1c0,20.8-6,29.7-8.7,32.6-.7.7-1.5,1.2-2.5,1.2l-52.4.2c-.2,0-.3-.3-.1-.5,7.1-3.8,12.5-9,15.3-16.4,1.9-5,2.7-10.4,2.5-16,0-7.3,2.5-12.5,5.9-16.2,4.7-5.3,11.7-8.1,18.9-8.1h37.6s-16.4,1.3-16.4,23.1Z"/>
    <line class="cls-3" x1="205.4" y1="197" x2="196" y2="203.7"/>
    <path class="cls-9" d="M72,165.5"/>
    <path class="cls-2" d="M76.7,95.9"/>
    <path class="cls-7" d="M229.9,51.8h-26.5c-.7,0-1.3-.6-1.3-1.3v-4.1c0-.7.6-1.3,1.3-1.3h26.5c.7,0,1.3.6,1.3,1.3v3.9c0,.8-.6,1.4-1.3,1.4Z"/>
    <path class="cls-7" d="M253.7,79.5l-25.1-8.8c-.7-.2-1-.9-.8-1.6l1.3-3.8c.2-.7.9-1,1.6-.8l25.1,8.8c.7.2,1,.9.8,1.6l-1.3,3.8c-.2.7-.9,1-1.6.8Z"/>
    <path class="cls-7" d="M245.5,156.1l-9.7-9.7c-.5-.5-.5-1.3,0-1.9l.8-.8c.5-.5,1.3-.5,1.9,0l9.7,9.7c.5.5.5,1.3,0,1.9l-.8.8c-.6.6-1.4.6-1.9,0Z"/>
    <path class="cls-7" d="M54.7,119.8l-20.6-18.1c-.6-.5-.6-1.3-.1-1.9l2.8-3.1c.5-.6,1.3-.6,1.9-.1l20.6,18.1c.6.5.6,1.3.1,1.9l-2.8,3.1c-.5.5-1.3.6-1.9.1Z"/>
    <path class="cls-7" d="M35,120l-15.3,7.2c-.7.3-1.4,0-1.7-.6l-.8-1.6c-.3-.7,0-1.4.6-1.7l15.3-7.2c.7-.3,1.4,0,1.7.6l.8,1.6c.3.7.1,1.4-.6,1.7Z"/>
    <line class="cls-8" x1="19.9" y1="234" x2="300" y2="234"/>
  </g>
</svg>