<svg width="19" height="19" viewBox="0 0 19 19" fill="none" xmlns="http://www.w3.org/2000/svg">
<path d="M8.3125 9.5H9.5V12.6667H11.0833M9.50001 6.33333H9.50792M10.7372 16.5168C11.6587 16.3543 12.5391 16.0119 13.3283 15.5092C14.1174 15.0064 14.7998 14.3532 15.3365 13.5867C15.8731 12.8203 16.2536 11.9556 16.4561 11.0421C16.6586 10.1286 16.6792 9.18421 16.5168 8.26276C16.3543 7.3413 16.0119 6.46087 15.5092 5.67174C15.0064 4.8826 14.3532 4.20022 13.5867 3.66354C12.8203 3.12686 11.9556 2.74641 11.0421 2.54389C10.1286 2.34138 9.18421 2.32077 8.26276 2.48324C7.3413 2.64572 6.46087 2.9881 5.67174 3.49084C4.8826 3.99357 4.20022 4.64681 3.66354 5.41327C3.12686 6.17972 2.74641 7.04438 2.54389 7.95787C2.34138 8.87136 2.32077 9.81579 2.48325 10.7372C2.64572 11.6587 2.9881 12.5391 3.49084 13.3283C3.99357 14.1174 4.64681 14.7998 5.41327 15.3365C6.17972 15.8731 7.04438 16.2536 7.95787 16.4561C8.87136 16.6586 9.81579 16.6792 10.7372 16.5168Z" stroke="#0C0C0C" stroke-width="1.5" stroke-linecap="round" stroke-linejoin="round"/>
</svg>
