<svg width="25" height="25" viewBox="0 0 25 25" fill="none" xmlns="http://www.w3.org/2000/svg">
<path d="M2.34375 3.15625C1.92954 3.15625 1.59375 3.49204 1.59375 3.90625C1.59375 4.32046 1.92954 4.65625 2.34375 4.65625V3.15625ZM5.46875 3.90625L6.20734 3.77591C6.14409 3.41752 5.83268 3.15625 5.46875 3.15625V3.90625ZM7.8125 17.1875L7.07391 17.3178C7.13716 17.6762 7.44857 17.9375 7.8125 17.9375V17.1875ZM20.3125 17.9375C20.7267 17.9375 21.0625 17.6017 21.0625 17.1875C21.0625 16.7733 20.7267 16.4375 20.3125 16.4375V17.9375ZM7.8125 12.2708C7.39829 12.2708 7.0625 12.6066 7.0625 13.0208C7.0625 13.435 7.39829 13.7708 7.8125 13.7708V12.2708ZM19.9922 13.0208L19.9927 12.2708H19.9922V13.0208ZM20.3755 12.7069L21.1109 12.8541L21.1109 12.854L20.3755 12.7069ZM21.7817 5.67562L21.0463 5.52843L21.0463 5.52853L21.7817 5.67562ZM21.3984 5.20833V5.95833L21.399 5.95833L21.3984 5.20833ZM6.25 4.45833C5.83579 4.45833 5.5 4.79412 5.5 5.20833C5.5 5.62255 5.83579 5.95833 6.25 5.95833V4.45833ZM8.625 20.3125C8.625 20.3298 8.61101 20.3438 8.59375 20.3438V21.8438C9.43944 21.8438 10.125 21.1582 10.125 20.3125H8.625ZM8.59375 20.3438C8.57649 20.3438 8.5625 20.3298 8.5625 20.3125H7.0625C7.0625 21.1582 7.74806 21.8438 8.59375 21.8438V20.3438ZM8.5625 20.3125C8.5625 20.2952 8.57649 20.2812 8.59375 20.2812V18.7812C7.74806 18.7812 7.0625 19.4668 7.0625 20.3125H8.5625ZM8.59375 20.2812C8.61101 20.2812 8.625 20.2952 8.625 20.3125H10.125C10.125 19.4668 9.43944 18.7812 8.59375 18.7812V20.2812ZM19.5625 20.3125C19.5625 20.3298 19.5485 20.3438 19.5312 20.3438V21.8438C20.3769 21.8438 21.0625 21.1582 21.0625 20.3125H19.5625ZM19.5312 20.3438C19.514 20.3438 19.5 20.3298 19.5 20.3125H18C18 21.1582 18.6856 21.8438 19.5312 21.8438V20.3438ZM19.5 20.3125C19.5 20.2952 19.514 20.2812 19.5312 20.2812V18.7812C18.6856 18.7812 18 19.4668 18 20.3125H19.5ZM19.5312 20.2812C19.5485 20.2812 19.5625 20.2952 19.5625 20.3125H21.0625C21.0625 19.4668 20.3769 18.7812 19.5312 18.7812V20.2812ZM2.34375 4.65625H5.46875V3.15625H2.34375V4.65625ZM4.73016 4.03659L7.07391 17.3178L8.55109 17.0572L6.20734 3.77591L4.73016 4.03659ZM7.8125 17.9375H20.3125V16.4375H7.8125V17.9375ZM7.8125 13.7708H19.9922V12.2708H7.8125V13.7708ZM19.9917 13.7708C20.2555 13.771 20.5112 13.6798 20.7152 13.5126L19.7647 12.3522C19.829 12.2995 19.9096 12.2708 19.9927 12.2708L19.9917 13.7708ZM20.7152 13.5126C20.9193 13.3454 21.0591 13.1127 21.1109 12.8541L19.6401 12.5597C19.6564 12.4782 19.7004 12.4049 19.7647 12.3522L20.7152 13.5126ZM21.1109 12.854L22.5172 5.82271L21.0463 5.52853L19.6401 12.5598L21.1109 12.854ZM22.5172 5.82281C22.5503 5.65725 22.5463 5.48641 22.5053 5.3226L21.05 5.68603C21.0372 5.63442 21.0359 5.58059 21.0463 5.52843L22.5172 5.82281ZM22.5053 5.3226C22.4644 5.15879 22.3877 5.0061 22.2806 4.87557L21.1209 5.82688C21.0871 5.78575 21.0629 5.73765 21.05 5.68603L22.5053 5.3226ZM22.2806 4.87557C22.1735 4.74503 22.0388 4.63989 21.8862 4.56773L21.2451 5.92386C21.197 5.90113 21.1546 5.868 21.1209 5.82688L22.2806 4.87557ZM21.8862 4.56773C21.7335 4.49558 21.5667 4.45822 21.3979 4.45833L21.399 5.95833C21.3458 5.95837 21.2932 5.9466 21.2451 5.92386L21.8862 4.56773ZM21.3984 4.45833H6.25V5.95833H21.3984V4.45833Z" fill="black"/>
</svg>
