<?xml version="1.0" encoding="UTF-8"?>
<svg id="_레이어_1" data-name="레이어 1" xmlns="http://www.w3.org/2000/svg" version="1.1" viewBox="0 0 25 25">
  <defs>
    <style>
      .cls-1 {
        fill: none;
        stroke: #333;
        stroke-miterlimit: 10;
        stroke-width: 2px;
      }

      .cls-2 {
        fill: #333;
        stroke-width: 0px;
      }
    </style>
  </defs>
  <circle class="cls-1" cx="12.5" cy="12.5" r="4.63"/>
  <path class="cls-2" d="M21.94,10.92c-.05-.96-.1-1.93-.33-2.87-.23-.95-.82-1.55-1.76-1.8-.43-.11-.87-.15-1.3-.18-2.01-.17-4.02-.17-6.04-.17-.7,0-1.41,0-2.11,0-1.61.03-3.22.07-4.82.27-1.19.15-1.94.81-2.22,1.97-.16.68-.21,1.37-.26,2.06-.15,2.1-.12,4.19.18,6.28.13.93.52,1.69,1.41,2.11.4.19.83.24,1.25.29,1.79.19,3.58.21,5.38.24,1.1.02,2.2,0,3.3-.02,1.6-.04,3.2-.07,4.79-.27,1.14-.14,1.93-.81,2.19-1.84.11-.43.17-.86.21-1.3.16-1.58.21-3.17.12-4.76ZM10.48,15.33v-5.68c1.65.95,3.27,1.88,4.93,2.84-1.66.96-3.28,1.89-4.93,2.84Z"/>
</svg>