<?xml version="1.0" encoding="UTF-8"?>
<svg id="_레이어_1" data-name="레이어 1" xmlns="http://www.w3.org/2000/svg" version="1.1" viewBox="0 0 25 25">
  <defs>
    <style>
      .cls-1 {
        fill: #333;
        stroke-width: 0px;
      }
    </style>
  </defs>
  <path class="cls-1" d="M10.5,10.21c-.21.6-.38,1.06-.54,1.53-.04.11-.11.28.11.26.32-.03.67.14.97-.1,0,0-.01-.06-.02-.09-.16-.5-.32-1-.52-1.61Z"/>
  <path class="cls-1" d="M19.48,4.56c-4.04-3.19-10.43-3.09-14.31.29-2.4,2.09-3.48,4.71-2.81,7.89.54,2.55,2.15,4.35,4.35,5.65.27.16.33.3.25.59-.27,1.02-.51,2.05-.76,3.08-.06.23-.19.49.05.65.25.17.43-.1.61-.23,1.14-.83,2.27-1.66,3.4-2.5.22-.16.41-.22.69-.18.61.08,1.23.1,1.84.14,2.25-.1,4.32-.72,6.19-1.99,4.91-3.34,5.15-9.7.49-13.39ZM7.57,13.51c0,.43-.27.53-.62.53-.36,0-.54-.16-.53-.55.02-.98-.01-1.96.02-2.94.01-.38-.11-.47-.45-.42-.17.02-.35,0-.52,0-.38,0-.6-.21-.59-.58,0-.37.19-.56.59-.56,1.01,0,2.02-.03,3.03-.06.37-.01.62.12.64.52.01.43-.24.56-.64.57-.92,0-.92.02-.92.94,0,.33,0,.66,0,.99,0,.52,0,1.04,0,1.56ZM12.24,14c-.26.07-.54,0-.57-.26-.09-.83-.65-.75-1.22-.72-.11,0-.22.02-.33,0-.44-.07-.7.07-.77.55-.05.37-.29.55-.68.4-.35-.13-.5-.35-.35-.74.47-1.22.92-2.45,1.38-3.68.14-.37.33-.64.78-.62.44.02.68.23.82.64.43,1.2.89,2.4,1.34,3.59.04.1.06.21.08.27,0,.37-.21.49-.47.56ZM15.6,14c-.69.01-1.39,0-2.08,0-.34,0-.46-.21-.46-.53,0-.66,0-1.33,0-1.99,0-.65.01-1.3,0-1.94,0-.4.19-.58.56-.6.39-.02.61.19.61.6,0,.99.01,1.99,0,2.98,0,.29.07.4.37.38.33-.02.66,0,.99,0,.37,0,.44.24.45.53,0,.3-.07.55-.43.56ZM19.8,13.85c-.29.23-.56.26-.8-.09-.34-.49-.7-.98-1.06-1.45-.08-.1-.11-.3-.3-.24-.18.06-.24.23-.23.42.01.35,0,.7,0,1.04.02.43-.28.5-.59.49-.31,0-.53-.1-.53-.5.02-1.36.02-2.72,0-4.08,0-.4.23-.49.54-.5.3-.01.58.04.59.44,0,.43,0,.87,0,1.3.04.02.07.04.11.06.51-.53,1.04-1.05,1.53-1.59.27-.3.48-.22.71.01.24.24.36.46.04.75-.37.34-.69.74-1.05,1.1-.17.17-.18.28-.03.47.42.52.79,1.07,1.21,1.58.28.35.14.58-.14.8Z"/>
</svg>