<?xml version="1.0" encoding="UTF-8"?>
<svg id="_레이어_1" data-name="레이어 1" xmlns="http://www.w3.org/2000/svg" version="1.1" xmlns:xlink="http://www.w3.org/1999/xlink" viewBox="0 0 340.16 184.25">
  <defs>
    <style>
      .cls-1 {
        stroke: #efa30a;
      }

      .cls-1, .cls-2 {
        fill: none;
        stroke-miterlimit: 10;
        stroke-width: .5px;
      }

      .cls-3 {
        font-family: Pretendard-Bold, Pretendard;
        font-size: 15px;
        font-weight: 700;
      }

      .cls-3, .cls-4 {
        fill: #fff;
      }

      .cls-5 {
        fill: url(#_무제_그라디언트_5-2);
      }

      .cls-5, .cls-6, .cls-7, .cls-8, .cls-9, .cls-4, .cls-10, .cls-11 {
        stroke-width: 0px;
      }

      .cls-6 {
        fill: #ffb30b;
      }

      .cls-7 {
        fill: url(#_무제_그라디언트_5);
      }

      .cls-8 {
        fill: #f4a300;
      }

      .cls-9 {
        fill: #ffe7bd;
      }

      .cls-2 {
        stroke: #e29103;
      }

      .cls-10 {
        fill: #ffc45c;
      }

      .cls-11 {
        fill: #494b57;
      }
    </style>
    <linearGradient id="_무제_그라디언트_5" data-name="무제 그라디언트 5" x1="71.31" y1="71.02" x2="272.83" y2="71.02" gradientUnits="userSpaceOnUse">
      <stop offset="0" stop-color="#e35756"/>
      <stop offset="1" stop-color="#df4846"/>
    </linearGradient>
    <linearGradient id="_무제_그라디언트_5-2" data-name="무제 그라디언트 5" y1="139.11" y2="139.11" xlink:href="#_무제_그라디언트_5"/>
  </defs>
  <g>
    <g>
      <circle class="cls-6" cx="73.59" cy="83.29" r="36.27"/>
      <circle class="cls-10" cx="73.59" cy="83.29" r="31.68"/>
    </g>
    <g>
      <circle class="cls-6" cx="44.24" cy="69.65" r="43.63"/>
      <circle class="cls-10" cx="44.24" cy="69.65" r="38.1"/>
    </g>
    <path class="cls-9" d="M58.91,73.89c-.89-2.41-2.75-3.92-4.97-5.04-2.06-1.05-4.27-1.68-6.51-2.2-.46-.11-.56-.29-.56-.73.02-3.07.01-6.15.01-9.22q0-.67.63-.49c2.59.73,4.91,1.98,6.95,3.73.23.2.35.26.57-.04,1.09-1.51,2.2-3.01,3.32-4.5.18-.24.19-.36-.06-.57-1-.85-2.06-1.61-3.2-2.27-2.39-1.37-4.94-2.25-7.67-2.58-.39-.05-.58-.16-.55-.61.05-.84,0-1.68.02-2.52,0-.3-.08-.41-.4-.4-1.44.01-2.89.01-4.33,0-.29,0-.38.09-.37.37.02.87,0,1.75.01,2.62,0,.32-.08.42-.41.47-1.96.27-3.82.88-5.53,1.9-4.31,2.56-6.33,7.17-5.26,12.06.63,2.9,2.54,4.77,5.08,6.08,1.77.91,3.65,1.53,5.57,2.02.44.11.57.3.56.75-.03,1.6-.01,3.19-.01,4.79,0,1.68,0,3.36,0,5.04,0,.37-.07.45-.45.35-3.1-.79-5.84-2.26-8.21-4.41-.19-.17-.3-.31-.53-.02-1.18,1.49-2.38,2.96-3.58,4.43-.19.24-.12.36.07.53.65.56,1.31,1.11,2.01,1.6,3.1,2.2,6.53,3.54,10.29,4.05.33.04.41.16.4.47-.02.97,0,1.95-.01,2.92,0,.31.09.4.4.4,1.44-.01,2.89-.01,4.33,0,.29,0,.37-.1.37-.38-.01-.79,0-1.58,0-2.37,0-.83,0-.82.82-.9,2.16-.22,4.22-.77,6.14-1.81,5.56-2.99,6.7-9.14,5.08-13.52ZM41.37,65.02c-.6-.25-1.2-.51-1.78-.81-3.11-1.66-2.64-4.98-.8-6.7.75-.7,1.63-1.17,2.61-1.47.31-.1.4-.06.4.29-.02,1.41,0,2.82,0,4.23,0,1.39-.01,2.79,0,4.18,0,.38-.1.42-.42.29ZM50.97,81.74c-1.07.85-2.3,1.29-3.62,1.53-.38.07-.49,0-.48-.41.02-1.49,0-2.99,0-4.48,0-1.49,0-2.99,0-4.48,0-.38.08-.46.46-.34,1.05.35,2.09.73,3.07,1.24,3.1,1.62,2.59,5.33.57,6.95Z"/>
  </g>
  <g>
    <path class="cls-7" d="M272.83,107.19c-10.23,0-18.91-7.84-19.74-18.21-.87-10.9,7.26-20.45,18.17-21.32.53-.04,1.05-.05,1.57-.05V26.14c0-3.42-2.77-6.18-6.18-6.18H77.5c-3.42,0-6.18,2.77-6.18,6.18v95.95h201.52v-14.89Z"/>
    <path class="cls-5" d="M77.5,156.13h189.15c3.42,0,6.18-2.77,6.18-6.18v-27.86H71.31v27.86c0,3.42,2.77,6.18,6.18,6.18Z"/>
    <path class="cls-11" d="M77.68,157.13h189.15c3.42,0,6.18-2.77,6.18-6.18v-27.86H71.5v27.86c0,3.42,2.77,6.18,6.18,6.18Z"/>
    <g>
      <path class="cls-4" d="M102.05,64.67c.72,1.02,1.43,2.04,2.06,3.12,1.18,2.02,1.18,4,.06,6.03-.59,1.07-1.34,2.01-2.11,2.95-.19.23-.29.24-.49.01-1.1-1.25-2.27-2.44-2.9-4.03-.43-1.09-.7-2.2-.55-3.37.16-1.18.92-2.04,1.73-2.84.66-.65,1.38-1.25,2.07-1.87.04,0,.08,0,.12,0Z"/>
      <path class="cls-4" d="M86.55,80.63c.57-.4,1.13-.81,1.7-1.19,1.87-1.26,3.92-1.51,6.09-1.04,1.38.3,2.71.74,4,1.3.25.1.34.18.15.45-.74,1.08-1.53,2.12-2.47,3.04-1.37,1.34-4.7,2.1-6.91.57-.77-.53-1.3-1.33-1.86-2.07-.23-.31-.39-.68-.71-.94,0-.04,0-.08,0-.12Z"/>
      <path class="cls-4" d="M228.93,73.62c-2.12,0-4.24,0-6.36,0-.29,0-.53-.04-.53.4.01,4.42.01,8.83,0,13.25,0,.32.11.4.41.4,2.38-.02,4.76-.02,7.14-.02v-1.55c-1.79,0-3.57,0-5.36.03-.33,0-.45-.08-.45-.43.02-1.27.02-2.54,0-3.81,0-.39.15-.45.49-.45,1.73.01,3.45,0,5.18,0h0c0-.51,0-1.01.01-1.52-1.71,0-3.41-.03-5.12,0-.45,0-.58-.11-.57-.56.03-1.21.03-2.42,0-3.63-.01-.46.14-.56.58-.56,1.75.02,3.49,0,5.24-.02v-1.55c-.22,0-.43.02-.65.02Z"/>
      <path class="cls-4" d="M158.28,76.49v2.47c0,2.7-.01,5.4.01,8.1,0,.49-.11.65-.62.63-1.04-.04-1.04,0-1.04-1.07,0-4.13,0-8.26-.01-12.38,0-.5.14-.59.62-.62.77-.05,1.25.22,1.72.84,2.43,3.19,4.91,6.33,7.38,9.49.13.16.2.38.5.47,0-.22,0-.41,0-.6,0-3.18.02-6.35,0-9.53,0-.52.12-.68.65-.66.97.05.97.01.97.98,0,4.17,0,8.34.01,12.5,0,.47-.13.57-.59.6-.67.04-1.07-.2-1.47-.73-2.58-3.37-5.2-6.72-7.8-10.07-.07-.09-.15-.18-.34-.4Z"/>
      <path class="cls-4" d="M205.06,76.3c-1.16-.67-2.28-1.04-3.47-1.18-4-.46-6.75,2.08-6.26,6.36.43,3.81,4.13,5.85,7.69,4.36.35-.14.47-.33.46-.71-.03-1.09-.02-2.18,0-3.27,0-.38-.08-.53-.49-.51-.63.03-1.27,0-1.91.01-.33.01-.44-.09-.45-.43-.02-1.04-.03-1.04,1.03-1.04,1.01,0,2.03.02,3.04,0,.38-.01.46.12.46.47-.02,1.94-.02,3.89,0,5.84,0,.32-.1.51-.38.65-2.54,1.23-5.14,1.45-7.76.31-1.44-.63-2.4-1.79-2.96-3.27-.77-2.02-.8-4.07-.1-6.11.87-2.51,3.15-4.09,6.09-4.29,1.63-.11,3.15.24,4.64.84.28.11.4.26.38.57-.03.43,0,.87,0,1.41Z"/>
      <path class="cls-4" d="M134.95,80.64c0-2.16.01-4.33,0-6.49,0-.41.09-.54.52-.54,1.26.01,1.26,0,1.26,1.23,0,1.53,0,3.06,0,4.58,0,.35.08.48.46.48,2.2-.02,4.41-.02,6.61,0,.37,0,.47-.1.47-.47-.02-1.75,0-3.49-.02-5.24,0-.41.05-.6.54-.58,1.24.03,1.24,0,1.24,1.25,0,4.07,0,8.14.01,12.21,0,.5-.13.64-.62.62-1.16-.03-1.16,0-1.16-1.19,0-1.53-.01-3.06,0-4.58,0-.36-.08-.48-.46-.47-2.2.02-4.41.02-6.61,0-.43,0-.47.17-.47.52.01,1.71,0,3.41.02,5.12,0,.44-.07.62-.57.61-1.21-.03-1.21,0-1.21-1.21,0-1.95,0-3.89,0-5.84Z"/>
      <path class="cls-4" d="M93.59,88.01c-.16-1.14.42-1.98,1.17-2.81,1.46-1.6,3.46-2.16,5.32-3,.17-.08.29-.05.35.15.52,1.71,1.08,3.41.6,5.23-.58,2.2-2.12,3.5-4.13,4.35-.66.27-1.33.5-2,.75-.16.06-.32.19-.4-.12-.38-1.49-.99-2.93-.92-4.54Z"/>
      <path class="cls-4" d="M183.23,80.62c0-2.14.01-4.29,0-6.43,0-.42.07-.59.54-.58,2.2.03,4.41.02,6.61,0,.43,0,.59.09.58.55-.03,1,0,1.01-1,1.01-1.47,0-2.94.01-4.41,0-.39,0-.56.06-.55.51.03,1.25.03,2.5,0,3.75,0,.41.13.49.51.48,1.57-.02,3.14,0,4.71-.02.42,0,.54.1.53.52-.02,1.04,0,1.04-1.02,1.04-1.41,0-2.82.01-4.23,0-.4,0-.5.11-.49.5.02,1.23.03,2.46,0,3.69-.01.44.15.51.55.51,1.65-.02,3.3,0,4.94-.02.47,0,.67.08.64.6-.04.95,0,.95-.99.95-2.06,0-4.13-.02-6.19.01-.55,0-.74-.1-.73-.7.04-2.12.02-4.25.02-6.37Z"/>
      <path class="cls-4" d="M109.91,90.99c0,.42,0,.83,0,1.25,0,.21-.02.36-.29.26-1.93-.71-3.89-1.31-5.56-2.6-1.81-1.41-2.43-3.2-1.96-5.4.15-.71.37-1.42.53-2.13.05-.19.09-.28.31-.2,1.95.71,3.79,1.56,5.24,3.14,1.49,1.64,1.77,3.61,1.74,5.69Z"/>
      <path class="cls-4" d="M106.71,77.93c-1.17-.02-1.95-.16-2.73-.26-.25-.03-.29-.13-.24-.35.44-1.8,1.02-3.52,2.35-4.9,1.46-1.51,3.15-2.02,5.19-1.52.9.22,1.8.47,2.68.77.33.11.46.23.4.62-.14.91-.47,1.73-1.09,2.39-1.88,1.97-4.21,3.02-6.55,3.25Z"/>
      <path class="cls-4" d="M110.89,84.3c-1.82.03-3.44-.48-4.8-1.73-.63-.57-.99-1.33-1.41-2.05-.13-.22,0-.31.14-.43,2.3-2.01,6.13-2.41,8.76-.91,1.16.66,1.82,1.73,2.34,2.91.56,1.26.58,1.26-.75,1.62-.59.16-1.2.26-1.81.37-.82.14-1.65.2-2.49.22Z"/>
      <path class="cls-4" d="M90.01,69.38c1.78.72,3.73.66,5.34,1.62,2.32,1.38,3.76,3.42,4.2,6.11.03.17.09.36-.18.42-1.59.37-3.14.75-4.78.08-1.89-.78-3.1-2.16-3.82-4-.52-1.32-.67-2.72-.76-4.22Z"/>
      <path class="cls-4" d="M172.13,84.41c1,1.03,2,1.73,3.32,1.86.4.04.8.01,1.18-.09,1.62-.42,2.12-2.06,1.01-3.34-.56-.64-1.27-1.07-1.98-1.5-.7-.42-1.39-.84-2.03-1.34-1.38-1.06-1.87-2.45-1.43-3.97.42-1.44,1.71-2.41,3.38-2.57,1.2-.11,2.32.09,3.38.68.27.15.42.31.4.64-.03.49,0,.98,0,1.56-.82-.59-1.57-1.09-2.49-1.25-.6-.11-1.19-.11-1.77.07-1.45.44-1.84,1.95-.79,3.04.66.68,1.51,1.09,2.31,1.56.75.44,1.5.89,2.12,1.52,1.17,1.19,1.53,2.91.87,4.39-.7,1.54-1.98,2.2-3.63,2.22-1.29.02-2.46-.34-3.53-1.06-.16-.11-.32-.2-.32-.45.02-.61,0-1.22,0-1.97Z"/>
      <path class="cls-4" d="M131.18,76.36c-1.08-.83-2.12-1.37-3.37-1.33-.34.01-.67.07-.99.18-1.35.49-1.69,1.91-.71,2.96.66.71,1.53,1.12,2.35,1.6.77.45,1.53.91,2.16,1.56,1.13,1.18,1.48,2.9.82,4.35-.69,1.52-1.95,2.18-3.57,2.21-1.29.03-2.47-.31-3.54-1.03-.15-.1-.36-.17-.35-.43.01-.63,0-1.25,0-2,.47.44.85.82,1.29,1.11.92.59,1.9.89,2.99.69.79-.14,1.43-.52,1.71-1.31.28-.79.03-1.48-.5-2.09-.45-.52-1.01-.89-1.58-1.25-.81-.5-1.64-.97-2.39-1.56-1.1-.86-1.78-1.92-1.58-3.38.24-1.75,1.4-2.89,3.22-3.16,1.27-.19,2.48,0,3.63.63.3.16.44.34.42.69-.03.47,0,.95,0,1.54Z"/>
      <path class="cls-4" d="M150.44,80.68c0-2.16.01-4.32,0-6.48,0-.42.07-.59.54-.58,1.24.03,1.24,0,1.24,1.25,0,4.05,0,8.09.01,12.14,0,.53-.11.72-.67.69-1.11-.05-1.11-.01-1.11-1.12v-5.89Z"/>
      <path class="cls-4" d="M219.75,87.41c-1.88-4.49-3.77-8.98-5.63-13.48-.23-.56-.63-.33-.99-.39-.37-.06-.51.13-.63.45-1.18,2.98-2.38,5.95-3.57,8.93-.62,1.56-1.25,3.11-1.9,4.73.45,0,.82-.03,1.19,0,.47.05.7-.11.86-.57.36-1.07.81-2.11,1.19-3.17.12-.34.28-.5.67-.49,1.63.03,3.25.02,4.88,0,.39,0,.54.14.68.48.44,1.12.92,2.23,1.39,3.34.07.17.09.4.37.39.5,0,1.01,0,1.54,0-.03-.14-.04-.2-.06-.25ZM211.08,81.88c.73-1.89,1.43-3.72,2.19-5.69.82,1.96,1.59,3.8,2.38,5.69h-4.57Z"/>
    </g>
    <text class="cls-3" transform="translate(131.64 144.92)"><tspan x="0" y="0">모바일 상품권</tspan></text>
  </g>
  <g>
    <g>
      <rect class="cls-8" x="273.1" y="146.75" width="66.45" height="11.67" rx="2.1" ry="2.1"/>
      <g>
        <line class="cls-1" x1="275.91" y1="148.26" x2="275.91" y2="156.92"/>
        <line class="cls-1" x1="278.34" y1="148.26" x2="278.34" y2="156.92"/>
        <line class="cls-1" x1="280.78" y1="148.26" x2="280.78" y2="156.92"/>
        <line class="cls-1" x1="283.21" y1="148.26" x2="283.21" y2="156.92"/>
        <line class="cls-1" x1="285.64" y1="148.26" x2="285.64" y2="156.92"/>
        <line class="cls-1" x1="288.07" y1="148.26" x2="288.07" y2="156.92"/>
        <line class="cls-1" x1="290.51" y1="148.26" x2="290.51" y2="156.92"/>
        <line class="cls-1" x1="292.94" y1="148.26" x2="292.94" y2="156.92"/>
        <line class="cls-1" x1="295.37" y1="148.26" x2="295.37" y2="156.92"/>
        <line class="cls-1" x1="297.81" y1="148.26" x2="297.81" y2="156.92"/>
        <line class="cls-1" x1="300.24" y1="148.26" x2="300.24" y2="156.92"/>
        <line class="cls-1" x1="302.67" y1="148.26" x2="302.67" y2="156.92"/>
        <line class="cls-1" x1="305.11" y1="148.26" x2="305.11" y2="156.92"/>
        <line class="cls-1" x1="307.54" y1="148.26" x2="307.54" y2="156.92"/>
        <line class="cls-2" x1="309.97" y1="148.26" x2="309.97" y2="156.92"/>
        <line class="cls-2" x1="312.41" y1="148.26" x2="312.41" y2="156.92"/>
        <line class="cls-2" x1="314.84" y1="148.26" x2="314.84" y2="156.92"/>
        <line class="cls-2" x1="317.27" y1="148.26" x2="317.27" y2="156.92"/>
        <line class="cls-2" x1="319.71" y1="148.26" x2="319.71" y2="156.92"/>
        <line class="cls-2" x1="322.14" y1="148.26" x2="322.14" y2="156.92"/>
        <line class="cls-2" x1="324.57" y1="148.26" x2="324.57" y2="156.92"/>
        <line class="cls-2" x1="327" y1="148.26" x2="327" y2="156.92"/>
        <line class="cls-2" x1="329.44" y1="148.26" x2="329.44" y2="156.92"/>
        <line class="cls-2" x1="331.87" y1="148.26" x2="331.87" y2="156.92"/>
        <line class="cls-2" x1="334.3" y1="148.26" x2="334.3" y2="156.92"/>
        <line class="cls-2" x1="336.74" y1="148.26" x2="336.74" y2="156.92"/>
      </g>
    </g>
    <g>
      <rect class="cls-8" x="268.81" y="135.08" width="66.45" height="11.67" rx="2.1" ry="2.1"/>
      <g>
        <line class="cls-1" x1="271.62" y1="136.58" x2="271.62" y2="145.24"/>
        <line class="cls-1" x1="274.05" y1="136.58" x2="274.05" y2="145.24"/>
        <line class="cls-1" x1="276.48" y1="136.58" x2="276.48" y2="145.24"/>
        <line class="cls-1" x1="278.92" y1="136.58" x2="278.92" y2="145.24"/>
        <line class="cls-1" x1="281.35" y1="136.58" x2="281.35" y2="145.24"/>
        <line class="cls-1" x1="283.78" y1="136.58" x2="283.78" y2="145.24"/>
        <line class="cls-1" x1="286.22" y1="136.58" x2="286.22" y2="145.24"/>
        <line class="cls-1" x1="288.65" y1="136.58" x2="288.65" y2="145.24"/>
        <line class="cls-1" x1="291.08" y1="136.58" x2="291.08" y2="145.24"/>
        <line class="cls-1" x1="293.52" y1="136.58" x2="293.52" y2="145.24"/>
        <line class="cls-1" x1="295.95" y1="136.58" x2="295.95" y2="145.24"/>
        <line class="cls-1" x1="298.38" y1="136.58" x2="298.38" y2="145.24"/>
        <line class="cls-1" x1="300.82" y1="136.58" x2="300.82" y2="145.24"/>
        <line class="cls-1" x1="303.25" y1="136.58" x2="303.25" y2="145.24"/>
        <line class="cls-1" x1="305.68" y1="136.58" x2="305.68" y2="145.24"/>
        <line class="cls-2" x1="308.12" y1="136.58" x2="308.12" y2="145.24"/>
        <line class="cls-2" x1="310.55" y1="136.58" x2="310.55" y2="145.24"/>
        <line class="cls-2" x1="312.98" y1="136.58" x2="312.98" y2="145.24"/>
        <line class="cls-2" x1="315.41" y1="136.58" x2="315.41" y2="145.24"/>
        <line class="cls-2" x1="317.85" y1="136.58" x2="317.85" y2="145.24"/>
        <line class="cls-2" x1="320.28" y1="136.58" x2="320.28" y2="145.24"/>
        <line class="cls-2" x1="322.71" y1="136.58" x2="322.71" y2="145.24"/>
        <line class="cls-2" x1="325.15" y1="136.58" x2="325.15" y2="145.24"/>
        <line class="cls-2" x1="327.58" y1="136.58" x2="327.58" y2="145.24"/>
        <line class="cls-2" x1="330.01" y1="136.58" x2="330.01" y2="145.24"/>
        <line class="cls-2" x1="332.45" y1="136.58" x2="332.45" y2="145.24"/>
      </g>
    </g>
    <g>
      <rect class="cls-8" x="263.91" y="123.4" width="66.45" height="11.67" rx="2.1" ry="2.1"/>
      <g>
        <line class="cls-1" x1="266.73" y1="124.91" x2="266.73" y2="133.57"/>
        <line class="cls-1" x1="269.16" y1="124.91" x2="269.16" y2="133.57"/>
        <line class="cls-1" x1="271.59" y1="124.91" x2="271.59" y2="133.57"/>
        <line class="cls-1" x1="274.02" y1="124.91" x2="274.02" y2="133.57"/>
        <line class="cls-1" x1="276.46" y1="124.91" x2="276.46" y2="133.57"/>
        <line class="cls-1" x1="278.89" y1="124.91" x2="278.89" y2="133.57"/>
        <line class="cls-1" x1="281.32" y1="124.91" x2="281.32" y2="133.57"/>
        <line class="cls-1" x1="283.76" y1="124.91" x2="283.76" y2="133.57"/>
        <line class="cls-1" x1="286.19" y1="124.91" x2="286.19" y2="133.57"/>
        <line class="cls-1" x1="288.62" y1="124.91" x2="288.62" y2="133.57"/>
        <line class="cls-1" x1="291.06" y1="124.91" x2="291.06" y2="133.57"/>
        <line class="cls-1" x1="293.49" y1="124.91" x2="293.49" y2="133.57"/>
        <line class="cls-1" x1="295.92" y1="124.91" x2="295.92" y2="133.57"/>
        <line class="cls-1" x1="298.36" y1="124.91" x2="298.36" y2="133.57"/>
        <line class="cls-1" x1="300.79" y1="124.91" x2="300.79" y2="133.57"/>
        <line class="cls-1" x1="303.22" y1="124.91" x2="303.22" y2="133.57"/>
        <line class="cls-1" x1="305.66" y1="124.91" x2="305.66" y2="133.57"/>
        <line class="cls-2" x1="308.09" y1="124.91" x2="308.09" y2="133.57"/>
        <line class="cls-2" x1="310.52" y1="124.91" x2="310.52" y2="133.57"/>
        <line class="cls-2" x1="312.95" y1="124.91" x2="312.95" y2="133.57"/>
        <line class="cls-2" x1="315.39" y1="124.91" x2="315.39" y2="133.57"/>
        <line class="cls-2" x1="317.82" y1="124.91" x2="317.82" y2="133.57"/>
        <line class="cls-2" x1="320.25" y1="124.91" x2="320.25" y2="133.57"/>
        <line class="cls-2" x1="322.69" y1="124.91" x2="322.69" y2="133.57"/>
        <line class="cls-2" x1="325.12" y1="124.91" x2="325.12" y2="133.57"/>
        <line class="cls-2" x1="327.55" y1="124.91" x2="327.55" y2="133.57"/>
      </g>
    </g>
    <g>
      <rect class="cls-8" x="270.66" y="111.8" width="66.45" height="11.67" rx="2.1" ry="2.1"/>
      <g>
        <line class="cls-2" x1="273.48" y1="113.3" x2="273.48" y2="121.96"/>
        <line class="cls-2" x1="275.91" y1="113.3" x2="275.91" y2="121.96"/>
        <line class="cls-2" x1="278.34" y1="113.3" x2="278.34" y2="121.96"/>
        <line class="cls-2" x1="280.78" y1="113.3" x2="280.78" y2="121.96"/>
        <line class="cls-2" x1="283.21" y1="113.3" x2="283.21" y2="121.96"/>
        <line class="cls-2" x1="285.64" y1="113.3" x2="285.64" y2="121.96"/>
        <line class="cls-2" x1="288.07" y1="113.3" x2="288.07" y2="121.96"/>
        <line class="cls-2" x1="290.51" y1="113.3" x2="290.51" y2="121.96"/>
        <line class="cls-2" x1="292.94" y1="113.3" x2="292.94" y2="121.96"/>
        <line class="cls-2" x1="295.37" y1="113.3" x2="295.37" y2="121.96"/>
        <line class="cls-2" x1="297.81" y1="113.3" x2="297.81" y2="121.96"/>
        <line class="cls-2" x1="300.24" y1="113.3" x2="300.24" y2="121.96"/>
        <line class="cls-2" x1="302.67" y1="113.3" x2="302.67" y2="121.96"/>
        <line class="cls-2" x1="305.11" y1="113.3" x2="305.11" y2="121.96"/>
        <line class="cls-2" x1="307.54" y1="113.3" x2="307.54" y2="121.96"/>
        <line class="cls-2" x1="309.97" y1="113.3" x2="309.97" y2="121.96"/>
        <line class="cls-2" x1="312.41" y1="113.3" x2="312.41" y2="121.96"/>
        <line class="cls-2" x1="314.84" y1="113.3" x2="314.84" y2="121.96"/>
        <line class="cls-2" x1="317.27" y1="113.3" x2="317.27" y2="121.96"/>
        <line class="cls-2" x1="319.71" y1="113.3" x2="319.71" y2="121.96"/>
        <line class="cls-2" x1="322.14" y1="113.3" x2="322.14" y2="121.96"/>
        <line class="cls-2" x1="324.57" y1="113.3" x2="324.57" y2="121.96"/>
        <line class="cls-2" x1="327" y1="113.3" x2="327" y2="121.96"/>
        <line class="cls-2" x1="329.44" y1="113.3" x2="329.44" y2="121.96"/>
        <line class="cls-2" x1="331.87" y1="113.3" x2="331.87" y2="121.96"/>
        <line class="cls-2" x1="334.3" y1="113.3" x2="334.3" y2="121.96"/>
      </g>
    </g>
    <g>
      <g>
        <rect class="cls-8" x="269.7" y="100.15" width="66.45" height="11.67" rx="2.1" ry="2.1"/>
        <g>
          <line class="cls-2" x1="272.51" y1="101.65" x2="272.51" y2="110.32"/>
          <line class="cls-2" x1="274.95" y1="101.65" x2="274.95" y2="110.32"/>
          <line class="cls-2" x1="277.38" y1="101.65" x2="277.38" y2="110.32"/>
          <line class="cls-2" x1="279.81" y1="101.65" x2="279.81" y2="110.32"/>
          <line class="cls-2" x1="282.25" y1="101.65" x2="282.25" y2="110.32"/>
          <line class="cls-2" x1="284.68" y1="101.65" x2="284.68" y2="110.32"/>
          <line class="cls-2" x1="287.11" y1="101.65" x2="287.11" y2="110.32"/>
          <line class="cls-2" x1="289.55" y1="101.65" x2="289.55" y2="110.32"/>
          <line class="cls-2" x1="291.98" y1="101.65" x2="291.98" y2="110.32"/>
          <line class="cls-2" x1="294.41" y1="101.65" x2="294.41" y2="110.32"/>
          <line class="cls-2" x1="296.85" y1="101.65" x2="296.85" y2="110.32"/>
          <line class="cls-2" x1="299.28" y1="101.65" x2="299.28" y2="110.32"/>
          <line class="cls-2" x1="301.71" y1="101.65" x2="301.71" y2="110.32"/>
          <line class="cls-2" x1="304.15" y1="101.65" x2="304.15" y2="110.32"/>
          <line class="cls-2" x1="306.58" y1="101.65" x2="306.58" y2="110.32"/>
          <line class="cls-2" x1="309.01" y1="101.65" x2="309.01" y2="110.32"/>
          <line class="cls-2" x1="311.44" y1="101.65" x2="311.44" y2="110.32"/>
          <line class="cls-2" x1="313.88" y1="101.65" x2="313.88" y2="110.32"/>
          <line class="cls-2" x1="316.31" y1="101.65" x2="316.31" y2="110.32"/>
          <line class="cls-2" x1="318.74" y1="101.65" x2="318.74" y2="110.32"/>
          <line class="cls-2" x1="321.18" y1="101.65" x2="321.18" y2="110.32"/>
          <line class="cls-2" x1="323.61" y1="101.65" x2="323.61" y2="110.32"/>
          <line class="cls-2" x1="326.04" y1="101.65" x2="326.04" y2="110.32"/>
          <line class="cls-2" x1="328.48" y1="101.65" x2="328.48" y2="110.32"/>
          <line class="cls-2" x1="330.91" y1="101.65" x2="330.91" y2="110.32"/>
          <line class="cls-2" x1="333.34" y1="101.65" x2="333.34" y2="110.32"/>
        </g>
      </g>
      <g>
        <rect class="cls-8" x="267.91" y="88.47" width="66.45" height="11.67" rx="2.1" ry="2.1"/>
        <g>
          <line class="cls-2" x1="270.72" y1="89.98" x2="270.72" y2="98.64"/>
          <line class="cls-2" x1="273.16" y1="89.98" x2="273.16" y2="98.64"/>
          <line class="cls-2" x1="275.59" y1="89.98" x2="275.59" y2="98.64"/>
          <line class="cls-2" x1="278.02" y1="89.98" x2="278.02" y2="98.64"/>
          <line class="cls-2" x1="280.45" y1="89.98" x2="280.45" y2="98.64"/>
          <line class="cls-2" x1="282.89" y1="89.98" x2="282.89" y2="98.64"/>
          <line class="cls-2" x1="285.32" y1="89.98" x2="285.32" y2="98.64"/>
          <line class="cls-2" x1="287.75" y1="89.98" x2="287.75" y2="98.64"/>
          <line class="cls-2" x1="290.19" y1="89.98" x2="290.19" y2="98.64"/>
          <line class="cls-2" x1="292.62" y1="89.98" x2="292.62" y2="98.64"/>
          <line class="cls-2" x1="295.05" y1="89.98" x2="295.05" y2="98.64"/>
          <line class="cls-2" x1="297.49" y1="89.98" x2="297.49" y2="98.64"/>
          <line class="cls-2" x1="299.92" y1="89.98" x2="299.92" y2="98.64"/>
          <line class="cls-2" x1="302.35" y1="89.98" x2="302.35" y2="98.64"/>
          <line class="cls-2" x1="304.79" y1="89.98" x2="304.79" y2="98.64"/>
          <line class="cls-2" x1="307.22" y1="89.98" x2="307.22" y2="98.64"/>
          <line class="cls-2" x1="309.65" y1="89.98" x2="309.65" y2="98.64"/>
          <line class="cls-2" x1="312.09" y1="89.98" x2="312.09" y2="98.64"/>
          <line class="cls-2" x1="314.52" y1="89.98" x2="314.52" y2="98.64"/>
          <line class="cls-2" x1="316.95" y1="89.98" x2="316.95" y2="98.64"/>
          <line class="cls-2" x1="319.38" y1="89.98" x2="319.38" y2="98.64"/>
          <line class="cls-2" x1="321.82" y1="89.98" x2="321.82" y2="98.64"/>
          <line class="cls-2" x1="324.25" y1="89.98" x2="324.25" y2="98.64"/>
          <line class="cls-2" x1="326.68" y1="89.98" x2="326.68" y2="98.64"/>
          <line class="cls-2" x1="329.12" y1="89.98" x2="329.12" y2="98.64"/>
          <line class="cls-2" x1="331.55" y1="89.98" x2="331.55" y2="98.64"/>
        </g>
      </g>
    </g>
    <g>
      <g>
        <rect class="cls-6" x="244.48" y="152.62" width="66.45" height="11.67" rx="2.1" ry="2.1"/>
        <g>
          <line class="cls-1" x1="247.29" y1="154.13" x2="247.29" y2="162.79"/>
          <line class="cls-1" x1="249.72" y1="154.13" x2="249.72" y2="162.79"/>
          <line class="cls-1" x1="252.15" y1="154.13" x2="252.15" y2="162.79"/>
          <line class="cls-1" x1="254.59" y1="154.13" x2="254.59" y2="162.79"/>
          <line class="cls-1" x1="257.02" y1="154.13" x2="257.02" y2="162.79"/>
          <line class="cls-1" x1="259.45" y1="154.13" x2="259.45" y2="162.79"/>
          <line class="cls-1" x1="261.89" y1="154.13" x2="261.89" y2="162.79"/>
          <line class="cls-1" x1="264.32" y1="154.13" x2="264.32" y2="162.79"/>
          <line class="cls-1" x1="266.75" y1="154.13" x2="266.75" y2="162.79"/>
          <line class="cls-1" x1="269.19" y1="154.13" x2="269.19" y2="162.79"/>
          <line class="cls-1" x1="271.62" y1="154.13" x2="271.62" y2="162.79"/>
          <line class="cls-1" x1="274.05" y1="154.13" x2="274.05" y2="162.79"/>
          <line class="cls-1" x1="276.48" y1="154.13" x2="276.48" y2="162.79"/>
          <line class="cls-1" x1="278.92" y1="154.13" x2="278.92" y2="162.79"/>
          <line class="cls-1" x1="281.35" y1="154.13" x2="281.35" y2="162.79"/>
          <line class="cls-1" x1="283.78" y1="154.13" x2="283.78" y2="162.79"/>
          <line class="cls-1" x1="286.22" y1="154.13" x2="286.22" y2="162.79"/>
          <line class="cls-1" x1="288.65" y1="154.13" x2="288.65" y2="162.79"/>
          <line class="cls-1" x1="291.08" y1="154.13" x2="291.08" y2="162.79"/>
          <line class="cls-1" x1="293.52" y1="154.13" x2="293.52" y2="162.79"/>
          <line class="cls-1" x1="295.95" y1="154.13" x2="295.95" y2="162.79"/>
          <line class="cls-1" x1="298.38" y1="154.13" x2="298.38" y2="162.79"/>
          <line class="cls-1" x1="300.82" y1="154.13" x2="300.82" y2="162.79"/>
          <line class="cls-1" x1="303.25" y1="154.13" x2="303.25" y2="162.79"/>
          <line class="cls-1" x1="305.68" y1="154.13" x2="305.68" y2="162.79"/>
          <line class="cls-1" x1="308.12" y1="154.13" x2="308.12" y2="162.79"/>
        </g>
      </g>
      <g>
        <rect class="cls-6" x="242.68" y="140.95" width="66.45" height="11.67" rx="2.1" ry="2.1"/>
        <g>
          <line class="cls-1" x1="245.49" y1="142.45" x2="245.49" y2="151.12"/>
          <line class="cls-1" x1="247.93" y1="142.45" x2="247.93" y2="151.12"/>
          <line class="cls-1" x1="250.36" y1="142.45" x2="250.36" y2="151.12"/>
          <line class="cls-1" x1="252.79" y1="142.45" x2="252.79" y2="151.12"/>
          <line class="cls-1" x1="255.23" y1="142.45" x2="255.23" y2="151.12"/>
          <line class="cls-1" x1="257.66" y1="142.45" x2="257.66" y2="151.12"/>
          <line class="cls-1" x1="260.09" y1="142.45" x2="260.09" y2="151.12"/>
          <line class="cls-1" x1="262.53" y1="142.45" x2="262.53" y2="151.12"/>
          <line class="cls-1" x1="264.96" y1="142.45" x2="264.96" y2="151.12"/>
          <line class="cls-1" x1="267.39" y1="142.45" x2="267.39" y2="151.12"/>
          <line class="cls-1" x1="269.83" y1="142.45" x2="269.83" y2="151.12"/>
          <line class="cls-1" x1="272.26" y1="142.45" x2="272.26" y2="151.12"/>
          <line class="cls-1" x1="274.69" y1="142.45" x2="274.69" y2="151.12"/>
          <line class="cls-1" x1="277.13" y1="142.45" x2="277.13" y2="151.12"/>
          <line class="cls-1" x1="279.56" y1="142.45" x2="279.56" y2="151.12"/>
          <line class="cls-1" x1="281.99" y1="142.45" x2="281.99" y2="151.12"/>
          <line class="cls-1" x1="284.42" y1="142.45" x2="284.42" y2="151.12"/>
          <line class="cls-1" x1="286.86" y1="142.45" x2="286.86" y2="151.12"/>
          <line class="cls-1" x1="289.29" y1="142.45" x2="289.29" y2="151.12"/>
          <line class="cls-1" x1="291.72" y1="142.45" x2="291.72" y2="151.12"/>
          <line class="cls-1" x1="294.16" y1="142.45" x2="294.16" y2="151.12"/>
          <line class="cls-1" x1="296.59" y1="142.45" x2="296.59" y2="151.12"/>
          <line class="cls-1" x1="299.02" y1="142.45" x2="299.02" y2="151.12"/>
          <line class="cls-1" x1="301.46" y1="142.45" x2="301.46" y2="151.12"/>
          <line class="cls-1" x1="303.89" y1="142.45" x2="303.89" y2="151.12"/>
          <line class="cls-1" x1="306.32" y1="142.45" x2="306.32" y2="151.12"/>
        </g>
      </g>
      <g>
        <rect class="cls-6" x="240.83" y="129.27" width="66.45" height="11.67" rx="2.1" ry="2.1"/>
        <g>
          <line class="cls-1" x1="243.64" y1="130.78" x2="243.64" y2="139.44"/>
          <line class="cls-1" x1="246.07" y1="130.78" x2="246.07" y2="139.44"/>
          <line class="cls-1" x1="248.5" y1="130.78" x2="248.5" y2="139.44"/>
          <line class="cls-1" x1="250.94" y1="130.78" x2="250.94" y2="139.44"/>
          <line class="cls-1" x1="253.37" y1="130.78" x2="253.37" y2="139.44"/>
          <line class="cls-1" x1="255.8" y1="130.78" x2="255.8" y2="139.44"/>
          <line class="cls-1" x1="258.24" y1="130.78" x2="258.24" y2="139.44"/>
          <line class="cls-1" x1="260.67" y1="130.78" x2="260.67" y2="139.44"/>
          <line class="cls-1" x1="263.1" y1="130.78" x2="263.1" y2="139.44"/>
          <line class="cls-1" x1="265.54" y1="130.78" x2="265.54" y2="139.44"/>
          <line class="cls-1" x1="267.97" y1="130.78" x2="267.97" y2="139.44"/>
          <line class="cls-1" x1="270.4" y1="130.78" x2="270.4" y2="139.44"/>
          <line class="cls-1" x1="272.83" y1="130.78" x2="272.83" y2="139.44"/>
          <line class="cls-1" x1="275.27" y1="130.78" x2="275.27" y2="139.44"/>
          <line class="cls-1" x1="277.7" y1="130.78" x2="277.7" y2="139.44"/>
          <line class="cls-1" x1="280.13" y1="130.78" x2="280.13" y2="139.44"/>
          <line class="cls-1" x1="282.57" y1="130.78" x2="282.57" y2="139.44"/>
          <line class="cls-1" x1="285" y1="130.78" x2="285" y2="139.44"/>
          <line class="cls-1" x1="287.43" y1="130.78" x2="287.43" y2="139.44"/>
          <line class="cls-1" x1="289.87" y1="130.78" x2="289.87" y2="139.44"/>
          <line class="cls-1" x1="292.3" y1="130.78" x2="292.3" y2="139.44"/>
          <line class="cls-1" x1="294.73" y1="130.78" x2="294.73" y2="139.44"/>
          <line class="cls-1" x1="297.17" y1="130.78" x2="297.17" y2="139.44"/>
          <line class="cls-1" x1="299.6" y1="130.78" x2="299.6" y2="139.44"/>
          <line class="cls-1" x1="302.03" y1="130.78" x2="302.03" y2="139.44"/>
          <line class="cls-1" x1="304.47" y1="130.78" x2="304.47" y2="139.44"/>
        </g>
      </g>
      <g>
        <rect class="cls-6" x="239.7" y="117.67" width="66.45" height="11.67" rx="2.1" ry="2.1"/>
        <g>
          <line class="cls-1" x1="242.51" y1="119.17" x2="242.51" y2="127.84"/>
          <line class="cls-1" x1="244.95" y1="119.17" x2="244.95" y2="127.84"/>
          <line class="cls-1" x1="247.38" y1="119.17" x2="247.38" y2="127.84"/>
          <line class="cls-1" x1="249.81" y1="119.17" x2="249.81" y2="127.84"/>
          <line class="cls-1" x1="252.25" y1="119.17" x2="252.25" y2="127.84"/>
          <line class="cls-1" x1="254.68" y1="119.17" x2="254.68" y2="127.84"/>
          <line class="cls-1" x1="257.11" y1="119.17" x2="257.11" y2="127.84"/>
          <line class="cls-1" x1="259.54" y1="119.17" x2="259.54" y2="127.84"/>
          <line class="cls-1" x1="261.98" y1="119.17" x2="261.98" y2="127.84"/>
          <line class="cls-1" x1="264.41" y1="119.17" x2="264.41" y2="127.84"/>
          <line class="cls-1" x1="266.84" y1="119.17" x2="266.84" y2="127.84"/>
          <line class="cls-1" x1="269.28" y1="119.17" x2="269.28" y2="127.84"/>
          <line class="cls-1" x1="271.71" y1="119.17" x2="271.71" y2="127.84"/>
          <line class="cls-1" x1="274.14" y1="119.17" x2="274.14" y2="127.84"/>
          <line class="cls-1" x1="276.58" y1="119.17" x2="276.58" y2="127.84"/>
          <line class="cls-1" x1="279.01" y1="119.17" x2="279.01" y2="127.84"/>
          <line class="cls-1" x1="281.44" y1="119.17" x2="281.44" y2="127.84"/>
          <line class="cls-1" x1="283.88" y1="119.17" x2="283.88" y2="127.84"/>
          <line class="cls-1" x1="286.31" y1="119.17" x2="286.31" y2="127.84"/>
          <line class="cls-1" x1="288.74" y1="119.17" x2="288.74" y2="127.84"/>
          <line class="cls-1" x1="291.18" y1="119.17" x2="291.18" y2="127.84"/>
          <line class="cls-1" x1="293.61" y1="119.17" x2="293.61" y2="127.84"/>
          <line class="cls-1" x1="296.04" y1="119.17" x2="296.04" y2="127.84"/>
          <line class="cls-1" x1="298.47" y1="119.17" x2="298.47" y2="127.84"/>
          <line class="cls-1" x1="300.91" y1="119.17" x2="300.91" y2="127.84"/>
          <line class="cls-1" x1="303.34" y1="119.17" x2="303.34" y2="127.84"/>
        </g>
      </g>
    </g>
  </g>
</svg>