<?xml version="1.0" encoding="UTF-8"?>
<svg id="_레이어_1" data-name="레이어 1" xmlns="http://www.w3.org/2000/svg" version="1.1" viewBox="0 0 340.16 184.25">
  <defs>
    <style>
      .cls-1 {
        fill: #dd2324;
      }

      .cls-1, .cls-2, .cls-3, .cls-4, .cls-5, .cls-6, .cls-7 {
        stroke-width: 0px;
      }

      .cls-8 {
        stroke: #efa30a;
      }

      .cls-8, .cls-9 {
        fill: none;
        stroke-miterlimit: 10;
        stroke-width: .5px;
      }

      .cls-10 {
        font-family: Pretendard-Bold, Pretendard;
        font-size: 15px;
        font-weight: 700;
      }

      .cls-10, .cls-5 {
        fill: #fff;
      }

      .cls-2 {
        fill: #ffb30b;
      }

      .cls-3 {
        fill: #f4a300;
      }

      .cls-4 {
        fill: #ffe7bd;
      }

      .cls-9 {
        stroke: #e29103;
      }

      .cls-6 {
        fill: #ffc45c;
      }

      .cls-7 {
        fill: #494b57;
      }
    </style>
  </defs>
  <g>
    <g>
      <circle class="cls-2" cx="73.59" cy="83.04" r="36.27"/>
      <circle class="cls-6" cx="73.59" cy="83.04" r="31.68"/>
    </g>
    <g>
      <circle class="cls-2" cx="44.24" cy="69.4" r="43.63"/>
      <circle class="cls-6" cx="44.24" cy="69.4" r="38.1"/>
    </g>
    <path class="cls-4" d="M58.91,73.64c-.89-2.41-2.75-3.92-4.97-5.04-2.06-1.05-4.27-1.68-6.51-2.2-.46-.11-.56-.29-.56-.73.02-3.07.01-6.15.01-9.22q0-.67.63-.49c2.59.73,4.91,1.98,6.95,3.73.23.2.35.26.57-.04,1.09-1.51,2.2-3.01,3.32-4.5.18-.24.19-.36-.06-.57-1-.85-2.06-1.61-3.2-2.27-2.39-1.37-4.94-2.25-7.67-2.58-.39-.05-.58-.16-.55-.61.05-.84,0-1.68.02-2.52,0-.3-.08-.41-.4-.4-1.44.01-2.89.01-4.33,0-.29,0-.38.09-.37.37.02.87,0,1.75.01,2.62,0,.32-.08.42-.41.47-1.96.27-3.82.88-5.53,1.9-4.31,2.56-6.33,7.17-5.26,12.06.63,2.9,2.54,4.77,5.08,6.08,1.77.91,3.65,1.53,5.57,2.02.44.11.57.3.56.75-.03,1.6-.01,3.19-.01,4.79,0,1.68,0,3.36,0,5.04,0,.37-.07.45-.45.35-3.1-.79-5.84-2.26-8.21-4.41-.19-.17-.3-.31-.53-.02-1.18,1.49-2.38,2.96-3.58,4.43-.19.24-.12.36.07.53.65.56,1.31,1.11,2.01,1.6,3.1,2.2,6.53,3.54,10.29,4.05.33.04.41.16.4.47-.02.97,0,1.95-.01,2.92,0,.31.09.4.4.4,1.44-.01,2.89-.01,4.33,0,.29,0,.37-.1.37-.38-.01-.79,0-1.58,0-2.37,0-.83,0-.82.82-.9,2.16-.22,4.22-.77,6.14-1.81,5.56-2.99,6.7-9.14,5.08-13.52ZM41.37,64.77c-.6-.25-1.2-.51-1.78-.81-3.11-1.66-2.64-4.98-.8-6.7.75-.7,1.63-1.17,2.61-1.47.31-.1.4-.06.4.29-.02,1.41,0,2.82,0,4.23,0,1.39-.01,2.79,0,4.18,0,.38-.1.42-.42.29ZM50.97,81.49c-1.07.85-2.3,1.29-3.62,1.53-.38.07-.49,0-.48-.41.02-1.49,0-2.99,0-4.48,0-1.49,0-2.99,0-4.48,0-.38.08-.46.46-.34,1.05.35,2.09.73,3.07,1.24,3.1,1.62,2.59,5.33.57,6.95Z"/>
  </g>
  <g>
    <path class="cls-1" d="M272.93,107.44c-10.23,0-18.91-7.84-19.74-18.21-.87-10.9,7.26-20.45,18.17-21.32.53-.04,1.05-.05,1.57-.05V26.39c0-3.42-2.77-6.18-6.18-6.18H77.59c-3.42,0-6.18,2.77-6.18,6.18v95.95h201.52v-14.89Z"/>
    <path class="cls-7" d="M77.59,156.38h189.15c3.42,0,6.18-2.77,6.18-6.18v-27.86H71.41v27.86c0,3.42,2.77,6.18,6.18,6.18Z"/>
    <text class="cls-10" transform="translate(131.55 145.18)"><tspan x="0" y="0">모바일 상품권</tspan></text>
    <g>
      <path class="cls-5" d="M110.03,71.25h3.29v5.12h5.33v-5.11h3.27v13.59h-3.26v-5.67h-5.32v5.66c-.08.01-.12.03-.16.03-.97,0-1.94,0-2.91,0-.18,0-.24-.05-.24-.23,0-4.41,0-8.81,0-13.22,0-.04,0-.09.01-.16Z"/>
      <path class="cls-5" d="M136.02,84.87v-9.59c.13,0,.24,0,.36,0,.81,0,1.63,0,2.44,0,.2,0,.28.05.27.27-.02.32,0,.64,0,1.07.74-1.11,1.71-1.61,2.95-1.6,1.24,0,2.22.48,2.84,1.6.19-.22.36-.44.55-.63,1.07-1,2.34-1.18,3.69-.79,1.33.38,1.95,1.41,2.22,2.69.07.35.1.71.1,1.07,0,1.88,0,3.75.01,5.63,0,.25-.07.31-.31.31-.93-.01-1.86,0-2.83,0,0-.13-.02-.25-.02-.36,0-1.64,0-3.27,0-4.91,0-.31-.03-.63-.1-.93-.1-.49-.35-.88-.87-1.01-.52-.13-1.01-.04-1.41.35-.45.45-.59,1.02-.59,1.62,0,1.63,0,3.25,0,4.88,0,.11,0,.22,0,.35h-3.16c0-.11,0-.22,0-.32,0-1.73,0-3.46,0-5.18,0-.26-.04-.52-.1-.76-.27-1-1.47-1.32-2.23-.61-.41.39-.6.89-.6,1.44-.02,1.68-.01,3.36-.02,5.04,0,.45.05.41-.39.41-.82,0-1.64,0-2.47,0-.1,0-.2,0-.31,0Z"/>
      <path class="cls-5" d="M182.8,75.3h3.14c0,.12.01.23.01.35,0,1.64-.01,3.29,0,4.93,0,.41.07.83.2,1.22.21.61.69.88,1.33.89.67,0,1.16-.27,1.37-.87.14-.38.21-.81.22-1.21.02-1.65,0-3.31,0-4.96,0-.11,0-.22,0-.35h3.14c.01.06.03.12.03.18,0,1.85,0,3.69,0,5.54,0,1.87-1.19,3.49-3.24,3.94-1.32.29-2.63.26-3.88-.3-1.51-.68-2.3-1.89-2.34-3.53-.05-1.88-.01-3.77-.02-5.65,0-.05,0-.11.02-.18Z"/>
      <path class="cls-5" d="M193.56,83.69c.59-.62,1.16-1.23,1.76-1.85.09.08.18.16.27.23.63.54,1.35.86,2.2.82.22-.01.46-.07.66-.18.53-.29.54-.98,0-1.24-.44-.21-.94-.32-1.41-.47-.36-.11-.73-.2-1.08-.33-1.04-.41-1.75-1.11-1.82-2.28-.07-1.16.38-2.09,1.38-2.72.86-.55,1.83-.73,2.83-.69,1.21.05,2.35.35,3.34,1.09.1.07.18.15.32.27-.62.56-1.22,1.11-1.84,1.68-.13-.09-.34-.26-.57-.39-.57-.33-1.18-.48-1.83-.33-.14.03-.28.09-.41.17-.44.29-.44.88.05,1.09.43.19.9.27,1.34.42.52.17,1.05.3,1.54.53,2.29,1.05,1.87,3.99.26,4.96-.65.39-1.34.61-2.09.68-1.51.14-2.94-.13-4.25-.94-.16-.1-.31-.23-.47-.35-.06-.04-.11-.1-.17-.16Z"/>
      <path class="cls-5" d="M177.52,70.77c.84,0,1.65,0,2.46,0q.7,0,.7.71c0,4.32,0,8.65,0,12.97v.4c-.1,0-.17.02-.24.02-.9,0-1.79,0-2.69,0-.21,0-.27-.06-.26-.27,0-4.53,0-9.05,0-13.58,0-.07,0-.15.02-.26Z"/>
      <path class="cls-5" d="M232.96,73.95c-1.38-1.82-3.25-2.72-5.54-2.8-.04-1.84-.66-3.44-1.92-4.75-1.27-1.32-2.84-2.04-4.67-2.12-1.72-.08-3.27.41-4.61,1.49-1.71,1.37-2.55,3.18-2.62,5.38-1.94.05-3.6.72-4.95,2.11-1.35,1.39-2.01,3.08-1.95,5.02.12,3.75,3.21,6.66,6.88,6.68-.05,3.42,2.68,6.54,6.31,6.85,1.63.14,3.14-.23,4.49-1.16,1.98-1.37,2.97-3.3,3.05-5.69,3.72-.05,6.71-2.91,6.89-6.6.08-1.62-.37-3.11-1.36-4.41ZM213.59,83.05c-1.84-.08-3.29-.83-4.23-2.39-1.09-1.8-1.06-3.65.1-5.4.96-1.45,2.36-2.16,4.13-2.21v10ZM220.46,66.16c3.11-.04,5.09,2.57,5.04,4.97h-9.98c-.08-2.2,1.72-4.94,4.94-4.97ZM215.52,73.08h9.99v9.95h-9.99v-9.95ZM220.44,89.94c-2.69-.02-5-2.34-4.93-4.98h10c.04,2.73-2.29,5-5.07,4.98ZM231.69,80.62c-.94,1.58-2.4,2.36-4.26,2.44v-10c1.72.05,3.1.73,4.07,2.12,1.21,1.75,1.29,3.61.2,5.44Z"/>
      <path class="cls-5" d="M175.7,79.16c-.17-1.22-.68-2.27-1.61-3.1-1.62-1.45-4.46-1.44-5.88.31-.02.02-.05.04-.12.09v-1.15h-2.99v13.5h3.14v-5.02c.21.21.35.37.51.51.16.14.34.26.52.36,1.76.98,4.17.45,5.41-1.22.95-1.27,1.23-2.72,1.01-4.27ZM171.33,82.35c-1.54.64-3.15-.5-3.2-2.25-.05-1.8,1.71-3.05,3.29-2.31.93.44,1.25,1.27,1.28,1.97,0,1.36-.52,2.24-1.37,2.59Z"/>
      <path class="cls-5" d="M134.37,79.64c-.14-1.93-1.1-3.34-2.86-4.15-1.03-.48-2.12-.58-3.25-.46-2.67.28-4.53,2.33-4.53,5.02,0,1.64.6,3,1.9,4.03.81.64,1.75.98,2.78,1.08,1.58.15,3.04-.19,4.27-1.24,1.31-1.11,1.81-2.58,1.7-4.26ZM131.19,80.93c-.35,1.08-1.22,1.65-2.34,1.58-.97-.06-1.78-.82-1.99-1.86-.04-.21-.06-.42-.08-.63.02-1.23.77-2.22,1.83-2.39,1.48-.24,2.71.77,2.73,2.27,0,.34-.04.71-.15,1.03Z"/>
      <path class="cls-5" d="M163.21,80.62c-.03-.43,0-.87-.06-1.3-.14-1.22-.57-2.31-1.49-3.16-1.68-1.54-4.7-1.61-6.58-.13-1.52,1.19-2.03,2.81-1.85,4.67.17,1.88,1.12,3.25,2.86,3.99,1.59.68,3.22.65,4.82,0,.76-.3,1.38-.8,1.87-1.5-.73-.47-1.45-.93-2.17-1.38-.9.94-1.95,1.17-3.12.71-.69-.27-1.15-.78-1.28-1.59.16,0,.27,0,.38,0,2.1,0,4.19,0,6.29,0,.25,0,.35-.07.33-.32ZM160.26,78.96h-4.04c.06-.61.35-1.06.83-1.39.67-.46,1.4-.55,2.16-.28.69.25,1.12.94,1.05,1.67Z"/>
    </g>
  </g>
  <g>
    <g>
      <rect class="cls-3" x="273.1" y="146.5" width="66.45" height="11.67" rx="2.1" ry="2.1"/>
      <g>
        <line class="cls-8" x1="275.91" y1="148.01" x2="275.91" y2="156.67"/>
        <line class="cls-8" x1="278.34" y1="148.01" x2="278.34" y2="156.67"/>
        <line class="cls-8" x1="280.78" y1="148.01" x2="280.78" y2="156.67"/>
        <line class="cls-8" x1="283.21" y1="148.01" x2="283.21" y2="156.67"/>
        <line class="cls-8" x1="285.64" y1="148.01" x2="285.64" y2="156.67"/>
        <line class="cls-8" x1="288.07" y1="148.01" x2="288.07" y2="156.67"/>
        <line class="cls-8" x1="290.51" y1="148.01" x2="290.51" y2="156.67"/>
        <line class="cls-8" x1="292.94" y1="148.01" x2="292.94" y2="156.67"/>
        <line class="cls-8" x1="295.37" y1="148.01" x2="295.37" y2="156.67"/>
        <line class="cls-8" x1="297.81" y1="148.01" x2="297.81" y2="156.67"/>
        <line class="cls-8" x1="300.24" y1="148.01" x2="300.24" y2="156.67"/>
        <line class="cls-8" x1="302.67" y1="148.01" x2="302.67" y2="156.67"/>
        <line class="cls-8" x1="305.11" y1="148.01" x2="305.11" y2="156.67"/>
        <line class="cls-8" x1="307.54" y1="148.01" x2="307.54" y2="156.67"/>
        <line class="cls-9" x1="309.97" y1="148.01" x2="309.97" y2="156.67"/>
        <line class="cls-9" x1="312.41" y1="148.01" x2="312.41" y2="156.67"/>
        <line class="cls-9" x1="314.84" y1="148.01" x2="314.84" y2="156.67"/>
        <line class="cls-9" x1="317.27" y1="148.01" x2="317.27" y2="156.67"/>
        <line class="cls-9" x1="319.71" y1="148.01" x2="319.71" y2="156.67"/>
        <line class="cls-9" x1="322.14" y1="148.01" x2="322.14" y2="156.67"/>
        <line class="cls-9" x1="324.57" y1="148.01" x2="324.57" y2="156.67"/>
        <line class="cls-9" x1="327" y1="148.01" x2="327" y2="156.67"/>
        <line class="cls-9" x1="329.44" y1="148.01" x2="329.44" y2="156.67"/>
        <line class="cls-9" x1="331.87" y1="148.01" x2="331.87" y2="156.67"/>
        <line class="cls-9" x1="334.3" y1="148.01" x2="334.3" y2="156.67"/>
        <line class="cls-9" x1="336.74" y1="148.01" x2="336.74" y2="156.67"/>
      </g>
    </g>
    <g>
      <rect class="cls-3" x="268.81" y="134.83" width="66.45" height="11.67" rx="2.1" ry="2.1"/>
      <g>
        <line class="cls-8" x1="271.62" y1="136.33" x2="271.62" y2="144.99"/>
        <line class="cls-8" x1="274.05" y1="136.33" x2="274.05" y2="144.99"/>
        <line class="cls-8" x1="276.48" y1="136.33" x2="276.48" y2="144.99"/>
        <line class="cls-8" x1="278.92" y1="136.33" x2="278.92" y2="144.99"/>
        <line class="cls-8" x1="281.35" y1="136.33" x2="281.35" y2="144.99"/>
        <line class="cls-8" x1="283.78" y1="136.33" x2="283.78" y2="144.99"/>
        <line class="cls-8" x1="286.22" y1="136.33" x2="286.22" y2="144.99"/>
        <line class="cls-8" x1="288.65" y1="136.33" x2="288.65" y2="144.99"/>
        <line class="cls-8" x1="291.08" y1="136.33" x2="291.08" y2="144.99"/>
        <line class="cls-8" x1="293.52" y1="136.33" x2="293.52" y2="144.99"/>
        <line class="cls-8" x1="295.95" y1="136.33" x2="295.95" y2="144.99"/>
        <line class="cls-8" x1="298.38" y1="136.33" x2="298.38" y2="144.99"/>
        <line class="cls-8" x1="300.82" y1="136.33" x2="300.82" y2="144.99"/>
        <line class="cls-8" x1="303.25" y1="136.33" x2="303.25" y2="144.99"/>
        <line class="cls-8" x1="305.68" y1="136.33" x2="305.68" y2="144.99"/>
        <line class="cls-9" x1="308.12" y1="136.33" x2="308.12" y2="144.99"/>
        <line class="cls-9" x1="310.55" y1="136.33" x2="310.55" y2="144.99"/>
        <line class="cls-9" x1="312.98" y1="136.33" x2="312.98" y2="144.99"/>
        <line class="cls-9" x1="315.41" y1="136.33" x2="315.41" y2="144.99"/>
        <line class="cls-9" x1="317.85" y1="136.33" x2="317.85" y2="144.99"/>
        <line class="cls-9" x1="320.28" y1="136.33" x2="320.28" y2="144.99"/>
        <line class="cls-9" x1="322.71" y1="136.33" x2="322.71" y2="144.99"/>
        <line class="cls-9" x1="325.15" y1="136.33" x2="325.15" y2="144.99"/>
        <line class="cls-9" x1="327.58" y1="136.33" x2="327.58" y2="144.99"/>
        <line class="cls-9" x1="330.01" y1="136.33" x2="330.01" y2="144.99"/>
        <line class="cls-9" x1="332.45" y1="136.33" x2="332.45" y2="144.99"/>
      </g>
    </g>
    <g>
      <rect class="cls-3" x="263.91" y="123.15" width="66.45" height="11.67" rx="2.1" ry="2.1"/>
      <g>
        <line class="cls-8" x1="266.73" y1="124.66" x2="266.73" y2="133.32"/>
        <line class="cls-8" x1="269.16" y1="124.66" x2="269.16" y2="133.32"/>
        <line class="cls-8" x1="271.59" y1="124.66" x2="271.59" y2="133.32"/>
        <line class="cls-8" x1="274.02" y1="124.66" x2="274.02" y2="133.32"/>
        <line class="cls-8" x1="276.46" y1="124.66" x2="276.46" y2="133.32"/>
        <line class="cls-8" x1="278.89" y1="124.66" x2="278.89" y2="133.32"/>
        <line class="cls-8" x1="281.32" y1="124.66" x2="281.32" y2="133.32"/>
        <line class="cls-8" x1="283.76" y1="124.66" x2="283.76" y2="133.32"/>
        <line class="cls-8" x1="286.19" y1="124.66" x2="286.19" y2="133.32"/>
        <line class="cls-8" x1="288.62" y1="124.66" x2="288.62" y2="133.32"/>
        <line class="cls-8" x1="291.06" y1="124.66" x2="291.06" y2="133.32"/>
        <line class="cls-8" x1="293.49" y1="124.66" x2="293.49" y2="133.32"/>
        <line class="cls-8" x1="295.92" y1="124.66" x2="295.92" y2="133.32"/>
        <line class="cls-8" x1="298.36" y1="124.66" x2="298.36" y2="133.32"/>
        <line class="cls-8" x1="300.79" y1="124.66" x2="300.79" y2="133.32"/>
        <line class="cls-8" x1="303.22" y1="124.66" x2="303.22" y2="133.32"/>
        <line class="cls-8" x1="305.66" y1="124.66" x2="305.66" y2="133.32"/>
        <line class="cls-9" x1="308.09" y1="124.66" x2="308.09" y2="133.32"/>
        <line class="cls-9" x1="310.52" y1="124.66" x2="310.52" y2="133.32"/>
        <line class="cls-9" x1="312.95" y1="124.66" x2="312.95" y2="133.32"/>
        <line class="cls-9" x1="315.39" y1="124.66" x2="315.39" y2="133.32"/>
        <line class="cls-9" x1="317.82" y1="124.66" x2="317.82" y2="133.32"/>
        <line class="cls-9" x1="320.25" y1="124.66" x2="320.25" y2="133.32"/>
        <line class="cls-9" x1="322.69" y1="124.66" x2="322.69" y2="133.32"/>
        <line class="cls-9" x1="325.12" y1="124.66" x2="325.12" y2="133.32"/>
        <line class="cls-9" x1="327.55" y1="124.66" x2="327.55" y2="133.32"/>
      </g>
    </g>
    <g>
      <rect class="cls-3" x="270.66" y="111.55" width="66.45" height="11.67" rx="2.1" ry="2.1"/>
      <g>
        <line class="cls-9" x1="273.48" y1="113.05" x2="273.48" y2="121.71"/>
        <line class="cls-9" x1="275.91" y1="113.05" x2="275.91" y2="121.71"/>
        <line class="cls-9" x1="278.34" y1="113.05" x2="278.34" y2="121.71"/>
        <line class="cls-9" x1="280.78" y1="113.05" x2="280.78" y2="121.71"/>
        <line class="cls-9" x1="283.21" y1="113.05" x2="283.21" y2="121.71"/>
        <line class="cls-9" x1="285.64" y1="113.05" x2="285.64" y2="121.71"/>
        <line class="cls-9" x1="288.07" y1="113.05" x2="288.07" y2="121.71"/>
        <line class="cls-9" x1="290.51" y1="113.05" x2="290.51" y2="121.71"/>
        <line class="cls-9" x1="292.94" y1="113.05" x2="292.94" y2="121.71"/>
        <line class="cls-9" x1="295.37" y1="113.05" x2="295.37" y2="121.71"/>
        <line class="cls-9" x1="297.81" y1="113.05" x2="297.81" y2="121.71"/>
        <line class="cls-9" x1="300.24" y1="113.05" x2="300.24" y2="121.71"/>
        <line class="cls-9" x1="302.67" y1="113.05" x2="302.67" y2="121.71"/>
        <line class="cls-9" x1="305.11" y1="113.05" x2="305.11" y2="121.71"/>
        <line class="cls-9" x1="307.54" y1="113.05" x2="307.54" y2="121.71"/>
        <line class="cls-9" x1="309.97" y1="113.05" x2="309.97" y2="121.71"/>
        <line class="cls-9" x1="312.41" y1="113.05" x2="312.41" y2="121.71"/>
        <line class="cls-9" x1="314.84" y1="113.05" x2="314.84" y2="121.71"/>
        <line class="cls-9" x1="317.27" y1="113.05" x2="317.27" y2="121.71"/>
        <line class="cls-9" x1="319.71" y1="113.05" x2="319.71" y2="121.71"/>
        <line class="cls-9" x1="322.14" y1="113.05" x2="322.14" y2="121.71"/>
        <line class="cls-9" x1="324.57" y1="113.05" x2="324.57" y2="121.71"/>
        <line class="cls-9" x1="327" y1="113.05" x2="327" y2="121.71"/>
        <line class="cls-9" x1="329.44" y1="113.05" x2="329.44" y2="121.71"/>
        <line class="cls-9" x1="331.87" y1="113.05" x2="331.87" y2="121.71"/>
        <line class="cls-9" x1="334.3" y1="113.05" x2="334.3" y2="121.71"/>
      </g>
    </g>
    <g>
      <g>
        <rect class="cls-3" x="269.7" y="99.9" width="66.45" height="11.67" rx="2.1" ry="2.1"/>
        <g>
          <line class="cls-9" x1="272.51" y1="101.4" x2="272.51" y2="110.07"/>
          <line class="cls-9" x1="274.95" y1="101.4" x2="274.95" y2="110.07"/>
          <line class="cls-9" x1="277.38" y1="101.4" x2="277.38" y2="110.07"/>
          <line class="cls-9" x1="279.81" y1="101.4" x2="279.81" y2="110.07"/>
          <line class="cls-9" x1="282.25" y1="101.4" x2="282.25" y2="110.07"/>
          <line class="cls-9" x1="284.68" y1="101.4" x2="284.68" y2="110.07"/>
          <line class="cls-9" x1="287.11" y1="101.4" x2="287.11" y2="110.07"/>
          <line class="cls-9" x1="289.55" y1="101.4" x2="289.55" y2="110.07"/>
          <line class="cls-9" x1="291.98" y1="101.4" x2="291.98" y2="110.07"/>
          <line class="cls-9" x1="294.41" y1="101.4" x2="294.41" y2="110.07"/>
          <line class="cls-9" x1="296.85" y1="101.4" x2="296.85" y2="110.07"/>
          <line class="cls-9" x1="299.28" y1="101.4" x2="299.28" y2="110.07"/>
          <line class="cls-9" x1="301.71" y1="101.4" x2="301.71" y2="110.07"/>
          <line class="cls-9" x1="304.15" y1="101.4" x2="304.15" y2="110.07"/>
          <line class="cls-9" x1="306.58" y1="101.4" x2="306.58" y2="110.07"/>
          <line class="cls-9" x1="309.01" y1="101.4" x2="309.01" y2="110.07"/>
          <line class="cls-9" x1="311.44" y1="101.4" x2="311.44" y2="110.07"/>
          <line class="cls-9" x1="313.88" y1="101.4" x2="313.88" y2="110.07"/>
          <line class="cls-9" x1="316.31" y1="101.4" x2="316.31" y2="110.07"/>
          <line class="cls-9" x1="318.74" y1="101.4" x2="318.74" y2="110.07"/>
          <line class="cls-9" x1="321.18" y1="101.4" x2="321.18" y2="110.07"/>
          <line class="cls-9" x1="323.61" y1="101.4" x2="323.61" y2="110.07"/>
          <line class="cls-9" x1="326.04" y1="101.4" x2="326.04" y2="110.07"/>
          <line class="cls-9" x1="328.48" y1="101.4" x2="328.48" y2="110.07"/>
          <line class="cls-9" x1="330.91" y1="101.4" x2="330.91" y2="110.07"/>
          <line class="cls-9" x1="333.34" y1="101.4" x2="333.34" y2="110.07"/>
        </g>
      </g>
      <g>
        <rect class="cls-3" x="267.91" y="88.22" width="66.45" height="11.67" rx="2.1" ry="2.1"/>
        <g>
          <line class="cls-9" x1="270.72" y1="89.73" x2="270.72" y2="98.39"/>
          <line class="cls-9" x1="273.16" y1="89.73" x2="273.16" y2="98.39"/>
          <line class="cls-9" x1="275.59" y1="89.73" x2="275.59" y2="98.39"/>
          <line class="cls-9" x1="278.02" y1="89.73" x2="278.02" y2="98.39"/>
          <line class="cls-9" x1="280.45" y1="89.73" x2="280.45" y2="98.39"/>
          <line class="cls-9" x1="282.89" y1="89.73" x2="282.89" y2="98.39"/>
          <line class="cls-9" x1="285.32" y1="89.73" x2="285.32" y2="98.39"/>
          <line class="cls-9" x1="287.75" y1="89.73" x2="287.75" y2="98.39"/>
          <line class="cls-9" x1="290.19" y1="89.73" x2="290.19" y2="98.39"/>
          <line class="cls-9" x1="292.62" y1="89.73" x2="292.62" y2="98.39"/>
          <line class="cls-9" x1="295.05" y1="89.73" x2="295.05" y2="98.39"/>
          <line class="cls-9" x1="297.49" y1="89.73" x2="297.49" y2="98.39"/>
          <line class="cls-9" x1="299.92" y1="89.73" x2="299.92" y2="98.39"/>
          <line class="cls-9" x1="302.35" y1="89.73" x2="302.35" y2="98.39"/>
          <line class="cls-9" x1="304.79" y1="89.73" x2="304.79" y2="98.39"/>
          <line class="cls-9" x1="307.22" y1="89.73" x2="307.22" y2="98.39"/>
          <line class="cls-9" x1="309.65" y1="89.73" x2="309.65" y2="98.39"/>
          <line class="cls-9" x1="312.09" y1="89.73" x2="312.09" y2="98.39"/>
          <line class="cls-9" x1="314.52" y1="89.73" x2="314.52" y2="98.39"/>
          <line class="cls-9" x1="316.95" y1="89.73" x2="316.95" y2="98.39"/>
          <line class="cls-9" x1="319.38" y1="89.73" x2="319.38" y2="98.39"/>
          <line class="cls-9" x1="321.82" y1="89.73" x2="321.82" y2="98.39"/>
          <line class="cls-9" x1="324.25" y1="89.73" x2="324.25" y2="98.39"/>
          <line class="cls-9" x1="326.68" y1="89.73" x2="326.68" y2="98.39"/>
          <line class="cls-9" x1="329.12" y1="89.73" x2="329.12" y2="98.39"/>
          <line class="cls-9" x1="331.55" y1="89.73" x2="331.55" y2="98.39"/>
        </g>
      </g>
    </g>
    <g>
      <g>
        <rect class="cls-2" x="244.48" y="152.37" width="66.45" height="11.67" rx="2.1" ry="2.1"/>
        <g>
          <line class="cls-8" x1="247.29" y1="153.88" x2="247.29" y2="162.54"/>
          <line class="cls-8" x1="249.72" y1="153.88" x2="249.72" y2="162.54"/>
          <line class="cls-8" x1="252.15" y1="153.88" x2="252.15" y2="162.54"/>
          <line class="cls-8" x1="254.59" y1="153.88" x2="254.59" y2="162.54"/>
          <line class="cls-8" x1="257.02" y1="153.88" x2="257.02" y2="162.54"/>
          <line class="cls-8" x1="259.45" y1="153.88" x2="259.45" y2="162.54"/>
          <line class="cls-8" x1="261.89" y1="153.88" x2="261.89" y2="162.54"/>
          <line class="cls-8" x1="264.32" y1="153.88" x2="264.32" y2="162.54"/>
          <line class="cls-8" x1="266.75" y1="153.88" x2="266.75" y2="162.54"/>
          <line class="cls-8" x1="269.19" y1="153.88" x2="269.19" y2="162.54"/>
          <line class="cls-8" x1="271.62" y1="153.88" x2="271.62" y2="162.54"/>
          <line class="cls-8" x1="274.05" y1="153.88" x2="274.05" y2="162.54"/>
          <line class="cls-8" x1="276.48" y1="153.88" x2="276.48" y2="162.54"/>
          <line class="cls-8" x1="278.92" y1="153.88" x2="278.92" y2="162.54"/>
          <line class="cls-8" x1="281.35" y1="153.88" x2="281.35" y2="162.54"/>
          <line class="cls-8" x1="283.78" y1="153.88" x2="283.78" y2="162.54"/>
          <line class="cls-8" x1="286.22" y1="153.88" x2="286.22" y2="162.54"/>
          <line class="cls-8" x1="288.65" y1="153.88" x2="288.65" y2="162.54"/>
          <line class="cls-8" x1="291.08" y1="153.88" x2="291.08" y2="162.54"/>
          <line class="cls-8" x1="293.52" y1="153.88" x2="293.52" y2="162.54"/>
          <line class="cls-8" x1="295.95" y1="153.88" x2="295.95" y2="162.54"/>
          <line class="cls-8" x1="298.38" y1="153.88" x2="298.38" y2="162.54"/>
          <line class="cls-8" x1="300.82" y1="153.88" x2="300.82" y2="162.54"/>
          <line class="cls-8" x1="303.25" y1="153.88" x2="303.25" y2="162.54"/>
          <line class="cls-8" x1="305.68" y1="153.88" x2="305.68" y2="162.54"/>
          <line class="cls-8" x1="308.12" y1="153.88" x2="308.12" y2="162.54"/>
        </g>
      </g>
      <g>
        <rect class="cls-2" x="242.68" y="140.7" width="66.45" height="11.67" rx="2.1" ry="2.1"/>
        <g>
          <line class="cls-8" x1="245.49" y1="142.2" x2="245.49" y2="150.87"/>
          <line class="cls-8" x1="247.93" y1="142.2" x2="247.93" y2="150.87"/>
          <line class="cls-8" x1="250.36" y1="142.2" x2="250.36" y2="150.87"/>
          <line class="cls-8" x1="252.79" y1="142.2" x2="252.79" y2="150.87"/>
          <line class="cls-8" x1="255.23" y1="142.2" x2="255.23" y2="150.87"/>
          <line class="cls-8" x1="257.66" y1="142.2" x2="257.66" y2="150.87"/>
          <line class="cls-8" x1="260.09" y1="142.2" x2="260.09" y2="150.87"/>
          <line class="cls-8" x1="262.53" y1="142.2" x2="262.53" y2="150.87"/>
          <line class="cls-8" x1="264.96" y1="142.2" x2="264.96" y2="150.87"/>
          <line class="cls-8" x1="267.39" y1="142.2" x2="267.39" y2="150.87"/>
          <line class="cls-8" x1="269.83" y1="142.2" x2="269.83" y2="150.87"/>
          <line class="cls-8" x1="272.26" y1="142.2" x2="272.26" y2="150.87"/>
          <line class="cls-8" x1="274.69" y1="142.2" x2="274.69" y2="150.87"/>
          <line class="cls-8" x1="277.13" y1="142.2" x2="277.13" y2="150.87"/>
          <line class="cls-8" x1="279.56" y1="142.2" x2="279.56" y2="150.87"/>
          <line class="cls-8" x1="281.99" y1="142.2" x2="281.99" y2="150.87"/>
          <line class="cls-8" x1="284.42" y1="142.2" x2="284.42" y2="150.87"/>
          <line class="cls-8" x1="286.86" y1="142.2" x2="286.86" y2="150.87"/>
          <line class="cls-8" x1="289.29" y1="142.2" x2="289.29" y2="150.87"/>
          <line class="cls-8" x1="291.72" y1="142.2" x2="291.72" y2="150.87"/>
          <line class="cls-8" x1="294.16" y1="142.2" x2="294.16" y2="150.87"/>
          <line class="cls-8" x1="296.59" y1="142.2" x2="296.59" y2="150.87"/>
          <line class="cls-8" x1="299.02" y1="142.2" x2="299.02" y2="150.87"/>
          <line class="cls-8" x1="301.46" y1="142.2" x2="301.46" y2="150.87"/>
          <line class="cls-8" x1="303.89" y1="142.2" x2="303.89" y2="150.87"/>
          <line class="cls-8" x1="306.32" y1="142.2" x2="306.32" y2="150.87"/>
        </g>
      </g>
      <g>
        <rect class="cls-2" x="240.83" y="129.02" width="66.45" height="11.67" rx="2.1" ry="2.1"/>
        <g>
          <line class="cls-8" x1="243.64" y1="130.53" x2="243.64" y2="139.19"/>
          <line class="cls-8" x1="246.07" y1="130.53" x2="246.07" y2="139.19"/>
          <line class="cls-8" x1="248.5" y1="130.53" x2="248.5" y2="139.19"/>
          <line class="cls-8" x1="250.94" y1="130.53" x2="250.94" y2="139.19"/>
          <line class="cls-8" x1="253.37" y1="130.53" x2="253.37" y2="139.19"/>
          <line class="cls-8" x1="255.8" y1="130.53" x2="255.8" y2="139.19"/>
          <line class="cls-8" x1="258.24" y1="130.53" x2="258.24" y2="139.19"/>
          <line class="cls-8" x1="260.67" y1="130.53" x2="260.67" y2="139.19"/>
          <line class="cls-8" x1="263.1" y1="130.53" x2="263.1" y2="139.19"/>
          <line class="cls-8" x1="265.54" y1="130.53" x2="265.54" y2="139.19"/>
          <line class="cls-8" x1="267.97" y1="130.53" x2="267.97" y2="139.19"/>
          <line class="cls-8" x1="270.4" y1="130.53" x2="270.4" y2="139.19"/>
          <line class="cls-8" x1="272.83" y1="130.53" x2="272.83" y2="139.19"/>
          <line class="cls-8" x1="275.27" y1="130.53" x2="275.27" y2="139.19"/>
          <line class="cls-8" x1="277.7" y1="130.53" x2="277.7" y2="139.19"/>
          <line class="cls-8" x1="280.13" y1="130.53" x2="280.13" y2="139.19"/>
          <line class="cls-8" x1="282.57" y1="130.53" x2="282.57" y2="139.19"/>
          <line class="cls-8" x1="285" y1="130.53" x2="285" y2="139.19"/>
          <line class="cls-8" x1="287.43" y1="130.53" x2="287.43" y2="139.19"/>
          <line class="cls-8" x1="289.87" y1="130.53" x2="289.87" y2="139.19"/>
          <line class="cls-8" x1="292.3" y1="130.53" x2="292.3" y2="139.19"/>
          <line class="cls-8" x1="294.73" y1="130.53" x2="294.73" y2="139.19"/>
          <line class="cls-8" x1="297.17" y1="130.53" x2="297.17" y2="139.19"/>
          <line class="cls-8" x1="299.6" y1="130.53" x2="299.6" y2="139.19"/>
          <line class="cls-8" x1="302.03" y1="130.53" x2="302.03" y2="139.19"/>
          <line class="cls-8" x1="304.47" y1="130.53" x2="304.47" y2="139.19"/>
        </g>
      </g>
      <g>
        <rect class="cls-2" x="239.7" y="117.42" width="66.45" height="11.67" rx="2.1" ry="2.1"/>
        <g>
          <line class="cls-8" x1="242.51" y1="118.92" x2="242.51" y2="127.59"/>
          <line class="cls-8" x1="244.95" y1="118.92" x2="244.95" y2="127.59"/>
          <line class="cls-8" x1="247.38" y1="118.92" x2="247.38" y2="127.59"/>
          <line class="cls-8" x1="249.81" y1="118.92" x2="249.81" y2="127.59"/>
          <line class="cls-8" x1="252.25" y1="118.92" x2="252.25" y2="127.59"/>
          <line class="cls-8" x1="254.68" y1="118.92" x2="254.68" y2="127.59"/>
          <line class="cls-8" x1="257.11" y1="118.92" x2="257.11" y2="127.59"/>
          <line class="cls-8" x1="259.54" y1="118.92" x2="259.54" y2="127.59"/>
          <line class="cls-8" x1="261.98" y1="118.92" x2="261.98" y2="127.59"/>
          <line class="cls-8" x1="264.41" y1="118.92" x2="264.41" y2="127.59"/>
          <line class="cls-8" x1="266.84" y1="118.92" x2="266.84" y2="127.59"/>
          <line class="cls-8" x1="269.28" y1="118.92" x2="269.28" y2="127.59"/>
          <line class="cls-8" x1="271.71" y1="118.92" x2="271.71" y2="127.59"/>
          <line class="cls-8" x1="274.14" y1="118.92" x2="274.14" y2="127.59"/>
          <line class="cls-8" x1="276.58" y1="118.92" x2="276.58" y2="127.59"/>
          <line class="cls-8" x1="279.01" y1="118.92" x2="279.01" y2="127.59"/>
          <line class="cls-8" x1="281.44" y1="118.92" x2="281.44" y2="127.59"/>
          <line class="cls-8" x1="283.88" y1="118.92" x2="283.88" y2="127.59"/>
          <line class="cls-8" x1="286.31" y1="118.92" x2="286.31" y2="127.59"/>
          <line class="cls-8" x1="288.74" y1="118.92" x2="288.74" y2="127.59"/>
          <line class="cls-8" x1="291.18" y1="118.92" x2="291.18" y2="127.59"/>
          <line class="cls-8" x1="293.61" y1="118.92" x2="293.61" y2="127.59"/>
          <line class="cls-8" x1="296.04" y1="118.92" x2="296.04" y2="127.59"/>
          <line class="cls-8" x1="298.47" y1="118.92" x2="298.47" y2="127.59"/>
          <line class="cls-8" x1="300.91" y1="118.92" x2="300.91" y2="127.59"/>
          <line class="cls-8" x1="303.34" y1="118.92" x2="303.34" y2="127.59"/>
        </g>
      </g>
    </g>
  </g>
</svg>