<svg width="14" height="16" viewBox="0 0 14 16" fill="none" xmlns="http://www.w3.org/2000/svg">
<path fill-rule="evenodd" clip-rule="evenodd" d="M9.59362 5.35418V5.28868C9.59362 4.9811 9.84015 4.73175 10.149 4.73175C10.4558 4.73175 10.7044 4.97796 10.7044 5.28868V6.34019L11.5841 7.12097C11.9153 7.41497 11.8269 7.6533 11.3875 7.6533H10.7044V12.0008C10.7044 12.2217 10.5214 12.4007 10.3063 12.4007H3.69708C3.47718 12.4007 3.29892 12.2223 3.29892 12.0008V7.6533H2.61238C2.17258 7.6533 2.08385 7.4156 2.41578 7.12097L6.69881 3.31921C6.86511 3.17159 7.13327 3.17029 7.30103 3.31921L9.59362 5.35418V5.35418ZM8.1125 8.56621V11.2503H9.59361V8.56621H8.1125Z" fill="black"/>
</svg>
