<?xml version="1.0" encoding="UTF-8"?>
<svg id="_레이어_1" data-name="레이어 1" xmlns="http://www.w3.org/2000/svg" viewBox="0 0 237.56 33.2">
  <defs>
    <style>
      .cls-1 {
        stroke-width: 0px;
      }
    </style>
  </defs>
  <g>
    <path class="cls-1" d="M0,1.37h10.33c2.66,0,4.76.39,6.3,1.16,1.53.77,2.63,1.81,3.28,3.11.65,1.3.98,2.75.98,4.36,0,2.04-.45,3.77-1.35,5.17s-2.3,2.44-4.21,3.11l6.64,14.37h-2.95l-6.21-13.8c-.81.12-1.68.18-2.61.18H2.65v13.63H0V1.37ZM18.15,10.05c0-2.07-.59-3.65-1.78-4.73-1.19-1.08-3.24-1.62-6.17-1.62H2.65v12.97h7.86c2.84,0,4.82-.57,5.95-1.71s1.69-2.77,1.69-4.91Z"/>
    <path class="cls-1" d="M27.1,1.37h19.54v2.41h-16.85v11.52h15.98v2.41h-15.98v12.53h17.5l-.52,2.41h-19.67V1.37Z"/>
  </g>
  <path class="cls-1" d="M163.7.47h10.47c4.43,0,7.87,1.3,10.34,3.89,2.46,2.59,3.69,6.42,3.69,11.49s-1.31,9.05-3.93,11.68c-2.62,2.63-6.27,3.95-10.96,3.95h-9.6V.47ZM185.41,15.93c0-4.23-.93-7.47-2.78-9.73-1.85-2.26-4.68-3.39-8.47-3.39h-7.77v26.32h6.99c4.05,0,7.07-1.15,9.05-3.45,1.98-2.3,2.97-5.55,2.97-9.75Z"/>
  <path class="cls-1" d="M224.32,18.23L213.59.47h3.08l8.95,15.33L234.74.47h2.82l-10.55,17.63v13.38h-2.69v-13.25Z"/>
  <path class="cls-1" d="M89.77,3.71h-10.6V1.32h23.88v2.39h-10.64v28.62h-2.65V3.71Z"/>
  <path class="cls-1" d="M120.82,20.89l-6.21-16.33-6.25,16.33-.87,2.34-3.56,9.34h-2.82L113.22,1.57h2.87l12.12,31.01h-2.95l-3.56-9.34"/>
  <path class="cls-1" d="M209.45,19.32l-6.21-16.33-6.25,16.33-.87,2.34-3.56,9.34h-2.82L201.85,0h2.87l12.12,31.01h-2.95l-3.56-9.34"/>
  <path class="cls-1" d="M132.11,1.32h2.69v28.62h16.81l-.48,2.39h-19.02V1.32Z"/>
  <path class="cls-1" d="M75.92,33.2h-3V15.41c0-6.11-3.66-11.07-8.16-11.07h-9.25v28.37h-3V1.34h12.25c6.15,0,11.16,6.31,11.16,14.07v17.79Z"/>
</svg>