<svg width="34" height="34" viewBox="0 0 34 34" fill="none" xmlns="http://www.w3.org/2000/svg">
<path d="M20.0134 4.63498H19.0134V4.68485L19.0184 4.73448L20.0134 4.63498ZM20.0134 4.63496H21.0134V4.58508L21.0085 4.53545L20.0134 4.63496ZM20.0525 5.02574L19.0575 5.12524V5.12524L20.0525 5.02574ZM20.8503 7.70503L20.4677 8.62891L20.8503 7.70503ZM23.309 6.37465L22.6758 5.60069L22.6758 5.60069L23.309 6.37465ZM23.613 6.12599L24.2462 6.89995L24.2462 6.89994L23.613 6.12599ZM24.9964 5.32811L24.9466 6.32687L24.9964 5.32811ZM26.2936 6.25969L25.5865 6.9668L26.2936 6.25969ZM27.7409 7.70694L27.0338 8.41404H27.0338L27.7409 7.70694ZM27.8746 10.3876L27.1006 9.75439L27.1006 9.75439L27.8746 10.3876ZM27.6259 10.6916L28.3999 11.3248V11.3248L27.6259 10.6916ZM28.9748 13.9481L28.8753 14.9432H28.8753L28.9748 13.9481ZM29.3657 13.9872L29.4652 12.9922H29.4652L29.3657 13.9872ZM30.9081 14.4013L31.6496 13.7303L31.6496 13.7303L30.9081 14.4013ZM30.9081 19.6L31.6496 20.271L31.6496 20.271L30.9081 19.6ZM29.3657 20.0141V21.0141H29.4156L29.4652 21.0091L29.3657 20.0141ZM29.3657 20.0141V19.0141H29.3158L29.2662 19.019L29.3657 20.0141ZM28.9753 20.0531L28.8758 19.0581H28.8758L28.9753 20.0531ZM26.2961 20.851L25.3722 20.4683L25.3722 20.4683L26.2961 20.851ZM27.6264 23.3097L26.8525 23.9429L26.884 23.9815L26.9193 24.0168L27.6264 23.3097ZM27.6264 23.3097L28.4004 22.6764L28.3688 22.6378L28.3335 22.6026L27.6264 23.3097ZM27.8747 23.6131L28.6486 22.9798L28.6486 22.9798L27.8747 23.6131ZM23.613 27.8747L24.2463 27.1007L24.2463 27.1007L23.613 27.8747ZM23.3091 27.626L22.6759 28.4H22.6759L23.3091 27.626ZM20.0526 28.9749L19.0575 28.8754V28.8754L20.0526 28.9749ZM20.0134 29.3663L19.0184 29.2668L19.0134 29.3165V29.3663H20.0134ZM20.0134 29.3663L21.0085 29.4659L21.0134 29.4162V29.3663H20.0134ZM19.5993 30.9088L20.2703 31.6502L20.2703 31.6502L19.5993 30.9088ZM14.4006 30.9088L13.7296 31.6502L13.7296 31.6502L14.4006 30.9088ZM13.9865 29.3663L12.9915 29.4658V29.4658L13.9865 29.3663ZM13.9475 28.9755L14.9425 28.876V28.876L13.9475 28.9755ZM10.6909 27.6266L11.3242 28.4005H11.3242L10.6909 27.6266ZM10.3869 27.8753L9.75365 27.1014L9.75365 27.1014L10.3869 27.8753ZM9.00342 28.6732L8.9536 29.672H8.9536L9.00342 28.6732ZM7.7062 27.7416L6.99909 28.4487H6.9991L7.7062 27.7416ZM6.25895 26.2944L6.96606 25.5873L6.25895 26.2944ZM6.12525 23.6137L6.89921 24.2469H6.89921L6.12525 23.6137ZM6.37397 23.3097L7.14793 23.9429L6.37397 23.3097ZM7.70435 20.851L6.78047 21.2337H6.78047L7.70435 20.851ZM5.02506 20.0532L4.92556 21.0482H4.92556L5.02506 20.0532ZM4.6343 20.0141L4.73381 19.019L4.68418 19.0141H4.6343V20.0141ZM4.63428 20.0141L4.53478 21.0091L4.58441 21.0141H4.63428V20.0141ZM3.09186 19.6L3.83331 18.929H3.83331L3.09186 19.6ZM3.09186 14.4013L2.35041 13.7303L2.35041 13.7303L3.09186 14.4013ZM4.63431 13.9872L4.5348 12.9922H4.5348L4.63431 13.9872ZM5.02559 13.9481L5.1251 14.9431H5.1251L5.02559 13.9481ZM6.3745 10.6915L7.14846 10.0583L7.11688 10.0197L7.08161 9.98443L6.3745 10.6915ZM6.3745 10.6915L5.60054 11.3248L5.63213 11.3634L5.66739 11.3986L6.3745 10.6915ZM6.12532 10.387L6.89928 9.75375L6.89928 9.75375L6.12532 10.387ZM6.25902 7.70629L6.96613 8.4134L6.25902 7.70629ZM7.70627 6.25905L8.41337 6.96615L8.41338 6.96615L7.70627 6.25905ZM10.387 6.12535L9.75372 6.8993H9.75372L10.387 6.12535ZM10.691 6.37409L10.0577 7.14805L10.0811 7.16713L10.1055 7.18477L10.691 6.37409ZM10.691 6.3741L11.3242 5.60014L11.3009 5.58106L11.2765 5.56342L10.691 6.3741ZM13.1497 7.70447L12.767 6.78059L12.767 6.78059L13.1497 7.70447ZM13.9475 5.02518L14.9426 5.12469V5.12469L13.9475 5.02518ZM13.9865 4.63498L12.9915 4.53548L13.9865 4.63498ZM14.4006 3.09253L13.7296 2.35108L13.7296 2.35108L14.4006 3.09253ZM19.5993 3.09253L18.9283 3.83398V3.83399L19.5993 3.09253ZM21.0134 4.63498V4.63496H19.0134V4.63498H21.0134ZM21.0475 4.92624L21.0085 4.53547L19.0184 4.73448L19.0575 5.12524L21.0475 4.92624ZM21.233 6.78115C21.4069 6.85318 21.3624 6.99479 21.2751 6.64812C21.1876 6.30003 21.1326 5.77681 21.0475 4.92623L19.0575 5.12524C19.1357 5.90821 19.2033 6.61014 19.3356 7.13607C19.4683 7.66341 19.7409 8.3279 20.4677 8.62891L21.233 6.78115ZM22.6758 5.60069C22.0142 6.14199 21.6054 6.47308 21.2973 6.65729C20.9905 6.84076 21.0591 6.70912 21.233 6.78115L20.4677 8.62891C21.1944 8.92992 21.857 8.65288 22.3237 8.3738C22.7892 8.09547 23.3333 7.64688 23.9423 7.14861L22.6758 5.60069ZM22.9797 5.35203L22.6758 5.60069L23.9423 7.14861L24.2462 6.89995L22.9797 5.35203ZM25.0462 4.32936C24.5715 4.30568 24.187 4.47615 23.8809 4.66704C23.599 4.84281 23.2919 5.0966 22.9797 5.35203L24.2462 6.89994C24.5998 6.61066 24.792 6.45592 24.9392 6.36414C25.0621 6.28746 25.0365 6.33136 24.9466 6.32687L25.0462 4.32936ZM27.0008 5.55258C26.7155 5.26736 26.4352 4.98427 26.1722 4.78131C25.8866 4.56092 25.521 4.35303 25.0462 4.32936L24.9466 6.32687C24.8567 6.32239 24.8356 6.27616 24.9503 6.3647C25.0877 6.47067 25.2635 6.64376 25.5865 6.9668L27.0008 5.55258ZM28.448 6.99983L27.0008 5.55258L25.5865 6.9668L27.0338 8.41404L28.448 6.99983ZM29.6712 8.95434C29.6476 8.47958 29.4397 8.11401 29.2193 7.8284C29.0163 7.5654 28.7332 7.28505 28.448 6.99983L27.0338 8.41404C27.3568 8.73707 27.5299 8.91292 27.6359 9.05025C27.7244 9.16497 27.6782 9.14389 27.6737 9.05397L29.6712 8.95434ZM28.6486 11.0209C28.904 10.7087 29.1578 10.4016 29.3335 10.1197C29.5244 9.81354 29.6949 9.4291 29.6712 8.95434L27.6737 9.05397C27.6692 8.96404 27.7131 8.93846 27.6364 9.06143C27.5447 9.20862 27.3899 9.40082 27.1006 9.75439L28.6486 11.0209ZM28.3999 11.3248L28.6486 11.0209L27.1006 9.75439L26.8519 10.0583L28.3999 11.3248ZM27.2194 12.7676C27.2914 12.9415 27.1598 13.0101 27.3433 12.7033C27.5275 12.3953 27.8586 11.9864 28.3999 11.3248L26.8519 10.0583C26.3537 10.6673 25.9051 11.2114 25.6267 11.6769C25.3477 12.1436 25.0706 12.8063 25.3716 13.533L27.2194 12.7676ZM29.0743 12.9531C28.2237 12.868 27.7005 12.813 27.3524 12.7255C27.0058 12.6383 27.1474 12.5937 27.2194 12.7676L25.3716 13.533C25.6727 14.2597 26.3371 14.5324 26.8645 14.665C27.3904 14.7974 28.0923 14.8649 28.8753 14.9432L29.0743 12.9531ZM29.4652 12.9922L29.0743 12.9531L28.8753 14.9432L29.2662 14.9823L29.4652 12.9922ZM31.6496 13.7303C31.3306 13.3778 30.9382 13.2266 30.5868 13.1451C30.2632 13.07 29.8665 13.0323 29.4652 12.9922L29.2662 14.9823C29.7207 15.0277 29.966 15.0542 30.135 15.0934C30.2762 15.1261 30.2271 15.1391 30.1667 15.0723L31.6496 13.7303ZM32.1666 15.9773C32.1666 15.5739 32.1686 15.1755 32.1261 14.846C32.08 14.4882 31.9685 14.0827 31.6496 13.7303L30.1666 15.0723C30.1062 15.0055 30.124 14.958 30.1425 15.1017C30.1647 15.2737 30.1666 15.5205 30.1666 15.9773H32.1666ZM32.1666 18.024V15.9773H30.1666V18.024H32.1666ZM31.6496 20.271C31.9685 19.9186 32.08 19.5131 32.1261 19.1553C32.1686 18.8258 32.1666 18.4274 32.1666 18.024H30.1666C30.1666 18.4808 30.1647 18.7276 30.1425 18.8996C30.124 19.0433 30.1062 18.9958 30.1666 18.929L31.6496 20.271ZM29.4652 21.0091C29.8665 20.969 30.2632 20.9313 30.5868 20.8562C30.9382 20.7747 31.3306 20.6235 31.6496 20.271L30.1667 18.929C30.2271 18.8622 30.2762 18.8752 30.135 18.9079C29.966 18.9471 29.7207 18.9736 29.2662 19.019L29.4652 21.0091ZM29.3657 21.0141H29.3657V19.0141H29.3657V21.0141ZM29.0748 21.0482L29.4652 21.0091L29.2662 19.019L28.8758 19.0581L29.0748 21.0482ZM27.2199 21.2336C27.1479 21.4075 27.0063 21.363 27.353 21.2758C27.701 21.1882 28.2243 21.1332 29.0749 21.0482L28.8758 19.0581C28.0929 19.1364 27.3909 19.2039 26.865 19.3362C26.3377 19.4689 25.6732 19.7416 25.3722 20.4683L27.2199 21.2336ZM28.4004 22.6764C27.8591 22.0148 27.528 21.606 27.3438 21.2979C27.1603 20.9911 27.292 21.0598 27.2199 21.2336L25.3722 20.4683C25.0712 21.195 25.3482 21.8577 25.6273 22.3244C25.9056 22.7898 26.3542 23.3339 26.8525 23.9429L28.4004 22.6764ZM28.3335 22.6026L28.3335 22.6025L26.9193 24.0168L26.9193 24.0168L28.3335 22.6026ZM28.6486 22.9798L28.4004 22.6764L26.8525 23.9429L27.1007 24.2463L28.6486 22.9798ZM29.6713 25.0463C29.695 24.5716 29.5245 24.1871 29.3336 23.881C29.1578 23.5991 28.904 23.292 28.6486 22.9798L27.1007 24.2463C27.39 24.5999 27.5447 24.7921 27.6365 24.9392C27.7132 25.0622 27.6693 25.0366 27.6738 24.9467L29.6713 25.0463ZM28.4481 27.0008C28.7333 26.7156 29.0164 26.4353 29.2193 26.1723C29.4397 25.8867 29.6476 25.5211 29.6713 25.0463L27.6738 24.9467C27.6783 24.8568 27.7245 24.8357 27.636 24.9504C27.53 25.0878 27.3569 25.2636 27.0339 25.5866L28.4481 27.0008ZM27.0008 28.4481L28.4481 27.0008L27.0339 25.5866L25.5866 27.0339L27.0008 28.4481ZM25.0463 29.6713C25.5211 29.6476 25.8866 29.4398 26.1722 29.2194C26.4353 29.0164 26.7156 28.7333 27.0008 28.4481L25.5866 27.0339C25.2636 27.3569 25.0877 27.53 24.9504 27.636C24.8357 27.7245 24.8568 27.6783 24.9467 27.6738L25.0463 29.6713ZM22.9798 28.6486C23.292 28.9041 23.5991 29.1579 23.881 29.3336C24.1871 29.5245 24.5716 29.695 25.0463 29.6713L24.9467 27.6738C25.0366 27.6693 25.0622 27.7132 24.9392 27.6365C24.792 27.5448 24.5998 27.39 24.2463 27.1007L22.9798 28.6486ZM22.6759 28.4L22.9798 28.6486L24.2463 27.1007L23.9423 26.8521L22.6759 28.4ZM21.2331 27.2195C21.0592 27.2915 20.9906 27.1599 21.2974 27.3434C21.6054 27.5276 22.0143 27.8587 22.6759 28.4L23.9423 26.8521C23.3333 26.3538 22.7893 25.9052 22.3238 25.6269C21.8571 25.3478 21.1944 25.0708 20.4677 25.3718L21.2331 27.2195ZM21.0476 29.0744C21.1326 28.2239 21.1876 27.7006 21.2752 27.3526C21.3624 27.0059 21.407 27.1475 21.2331 27.2195L20.4677 25.3718C19.741 25.6728 19.4683 26.3373 19.3356 26.8646C19.2033 27.3905 19.1358 28.0925 19.0575 28.8754L21.0476 29.0744ZM21.0085 29.4658L21.0476 29.0744L19.0575 28.8754L19.0184 29.2668L21.0085 29.4658ZM21.0134 29.3663V29.3663H19.0134V29.3663H21.0134ZM20.2703 31.6502C20.6228 31.3313 20.7741 30.9389 20.8556 30.5875C20.9306 30.2638 20.9683 29.8672 21.0085 29.4659L19.0184 29.2668C18.9729 29.7214 18.9464 29.9667 18.9073 30.1357C18.8745 30.2769 18.8616 30.2277 18.9283 30.1673L20.2703 31.6502ZM18.0233 32.1673C18.4267 32.1673 18.8251 32.1693 19.1546 32.1268C19.5124 32.0807 19.9179 31.9692 20.2703 31.6502L18.9283 30.1673C18.9951 30.1069 19.0427 30.1247 18.899 30.1432C18.7269 30.1654 18.4802 30.1673 18.0233 30.1673V32.1673ZM15.9766 32.1673H18.0233V30.1673H15.9766V32.1673ZM13.7296 31.6502C14.0821 31.9692 14.4876 32.0807 14.8454 32.1268C15.1748 32.1693 15.5733 32.1673 15.9766 32.1673V30.1673C15.5198 30.1673 15.273 30.1654 15.101 30.1432C14.9573 30.1247 15.0049 30.1069 15.0716 30.1673L13.7296 31.6502ZM12.9915 29.4658C13.0316 29.8672 13.0694 30.2638 13.1444 30.5874C13.2259 30.9389 13.3772 31.3313 13.7296 31.6502L15.0716 30.1673C15.1384 30.2277 15.1254 30.2769 15.0927 30.1357C15.0535 29.9667 15.027 29.7214 14.9816 29.2668L12.9915 29.4658ZM12.9524 29.075L12.9915 29.4658L14.9816 29.2668L14.9425 28.876L12.9524 29.075ZM12.7669 27.2201C12.593 27.1481 12.6376 27.0064 12.7248 27.3531C12.8124 27.7012 12.8674 28.2244 12.9524 29.075L14.9425 28.876C14.8642 28.093 14.7967 27.3911 14.6644 26.8652C14.5317 26.3378 14.259 25.6733 13.5323 25.3723L12.7669 27.2201ZM11.3242 28.4005C11.9857 27.8592 12.3946 27.5281 12.7027 27.3439C13.0095 27.1605 12.9408 27.2921 12.7669 27.2201L13.5323 25.3723C12.8056 25.0713 12.1429 25.3483 11.6762 25.6274C11.2108 25.9058 10.6667 26.3544 10.0577 26.8526L11.3242 28.4005ZM11.0201 28.6493L11.3242 28.4005L10.0577 26.8526L9.75365 27.1014L11.0201 28.6493ZM8.9536 29.672C9.42836 29.6956 9.8128 29.5252 10.1189 29.3343C10.4008 29.1585 10.7079 28.9047 11.0201 28.6493L9.75365 27.1014C9.40008 27.3907 9.20789 27.5454 9.06069 27.6372C8.93773 27.7139 8.96331 27.67 9.05323 27.6744L8.9536 29.672ZM6.9991 28.4487C7.28432 28.734 7.56466 29.0171 7.82767 29.22C8.11328 29.4404 8.47884 29.6483 8.9536 29.672L9.05324 27.6744C9.14316 27.6789 9.16424 27.7252 9.04951 27.6366C8.91218 27.5306 8.73634 27.3576 8.41331 27.0345L6.9991 28.4487ZM5.55185 27.0015L6.99909 28.4487L8.41331 27.0345L6.96606 25.5873L5.55185 27.0015ZM4.32862 25.047C4.3523 25.5217 4.56019 25.8873 4.78058 26.1729C4.98353 26.4359 5.26663 26.7163 5.55185 27.0015L6.96606 25.5873C6.64303 25.2642 6.46993 25.0884 6.36396 24.9511C6.27543 24.8363 6.32165 24.8574 6.32614 24.9474L4.32862 25.047ZM5.3513 22.9805C5.09587 23.2926 4.84208 23.5998 4.6663 23.8817C4.47542 24.1878 4.30494 24.5722 4.32862 25.047L6.32614 24.9474C6.33062 25.0373 6.28673 25.0629 6.3634 24.9399C6.45519 24.7927 6.60993 24.6005 6.89921 24.2469L5.3513 22.9805ZM5.60001 22.6765L5.3513 22.9805L6.89921 24.2469L7.14793 23.9429L5.60001 22.6765ZM6.78047 21.2337C6.70844 21.0598 6.84008 20.9912 6.65662 21.298C6.4724 21.606 6.14131 22.0149 5.60001 22.6765L7.14793 23.9429C7.6462 23.3339 8.09479 22.7899 8.37312 22.3244C8.6522 21.8577 8.92924 21.195 8.62823 20.4683L6.78047 21.2337ZM4.92556 21.0482C5.77613 21.1333 6.29936 21.1882 6.64744 21.2758C6.99411 21.363 6.8525 21.4076 6.78047 21.2337L8.62823 20.4683C8.32722 19.7416 7.66273 19.4689 7.13539 19.3363C6.60946 19.2039 5.90753 19.1364 5.12456 19.0581L4.92556 21.0482ZM4.5348 21.0091L4.92556 21.0482L5.12457 19.0581L4.73381 19.019L4.5348 21.0091ZM4.63428 21.0141H4.6343V19.0141H4.63428V21.0141ZM2.35041 20.271C2.66937 20.6235 3.06175 20.7747 3.41318 20.8562C3.7368 20.9313 4.13342 20.969 4.53478 21.0091L4.73379 19.019C4.27923 18.9736 4.03391 18.9471 3.86494 18.9079C3.72377 18.8752 3.7729 18.8622 3.83331 18.929L2.35041 20.271ZM1.83331 18.024C1.83331 18.4274 1.83137 18.8258 1.87383 19.1553C1.91995 19.5131 2.03145 19.9186 2.35041 20.271L3.83331 18.929C3.89373 18.9958 3.87595 19.0433 3.85743 18.8996C3.83526 18.7276 3.83331 18.4808 3.83331 18.024H1.83331ZM1.83331 15.9773V18.024H3.83331V15.9773H1.83331ZM2.35041 13.7303C2.03145 14.0827 1.91995 14.4882 1.87383 14.846C1.83137 15.1755 1.83331 15.5739 1.83331 15.9773H3.83331C3.83331 15.5205 3.83526 15.2737 3.85743 15.1017C3.87595 14.958 3.89373 15.0055 3.83331 15.0723L2.35041 13.7303ZM4.5348 12.9922C4.13344 13.0323 3.73681 13.07 3.41319 13.1451C3.06175 13.2266 2.66937 13.3778 2.35041 13.7303L3.83331 15.0723C3.7729 15.1391 3.72377 15.1261 3.86494 15.0934C4.03392 15.0542 4.27924 15.0277 4.73381 14.9823L4.5348 12.9922ZM4.92609 12.9531L4.5348 12.9922L4.73381 14.9823L5.1251 14.9431L4.92609 12.9531ZM6.781 12.7676C6.85303 12.5937 6.99464 12.6382 6.64797 12.7254C6.29989 12.813 5.77666 12.868 4.92609 12.9531L5.1251 14.9431C5.90806 14.8648 6.60999 14.7973 7.13592 14.665C7.66326 14.5323 8.32775 14.2596 8.62876 13.5329L6.781 12.7676ZM5.60055 11.3248C6.14185 11.9864 6.47294 12.3952 6.65715 12.7033C6.84061 13.0101 6.70898 12.9414 6.781 12.7676L8.62876 13.5329C8.92977 12.8062 8.65274 12.1435 8.37366 11.6768C8.09533 11.2114 7.64674 10.6673 7.14846 10.0583L5.60055 11.3248ZM5.66739 11.3986L5.6674 11.3986L7.08161 9.98443L7.08161 9.98443L5.66739 11.3986ZM5.35136 11.0202L5.60054 11.3248L7.14846 10.0583L6.89928 9.75375L5.35136 11.0202ZM4.32869 8.9537C4.30501 9.42845 4.47549 9.81289 4.66637 10.119C4.84214 10.4009 5.09594 10.708 5.35136 11.0202L6.89928 9.75375C6.60999 9.40017 6.45525 9.20798 6.36347 9.06079C6.28679 8.93782 6.33069 8.9634 6.3262 9.05332L4.32869 8.9537ZM5.55191 6.99919C5.26669 7.28441 4.9836 7.56476 4.78064 7.82776C4.56025 8.11337 4.35237 8.47894 4.32869 8.9537L6.3262 9.05332C6.32172 9.14325 6.2755 9.16433 6.36403 9.0496C6.47 8.91228 6.6431 8.73643 6.96613 8.4134L5.55191 6.99919ZM6.99916 5.55194L5.55191 6.99919L6.96613 8.4134L8.41337 6.96615L6.99916 5.55194ZM8.95367 4.32871C8.47891 4.35239 8.11334 4.56028 7.82774 4.78067C7.56473 4.98362 7.28438 5.26672 6.99916 5.55194L8.41338 6.96615C8.73641 6.64312 8.91225 6.47003 9.04958 6.36405C9.16431 6.27552 9.14322 6.32175 9.0533 6.32623L8.95367 4.32871ZM11.0202 5.35139C10.708 5.09596 10.4009 4.84217 10.119 4.66639C9.81287 4.47551 9.42843 4.30504 8.95367 4.32871L9.0533 6.32623C8.96337 6.33072 8.93779 6.28682 9.06076 6.3635C9.20795 6.45528 9.40015 6.61002 9.75372 6.8993L11.0202 5.35139ZM11.3242 5.60013L11.0202 5.35139L9.75372 6.8993L10.0577 7.14805L11.3242 5.60013ZM11.2765 5.56342L11.2765 5.56341L10.1055 7.18477L10.1055 7.18477L11.2765 5.56342ZM12.767 6.78059C12.9409 6.70857 13.0095 6.8402 12.7027 6.65674C12.3947 6.47253 11.9858 6.14144 11.3242 5.60014L10.0577 7.14805C10.6667 7.64633 11.2108 8.09492 11.6763 8.37325C12.143 8.65233 12.8057 8.92936 13.5324 8.62835L12.767 6.78059ZM12.9525 4.92568C12.8674 5.77625 12.8124 6.29948 12.7249 6.64756C12.6377 6.99423 12.5931 6.85262 12.767 6.78059L13.5324 8.62835C14.2591 8.32734 14.5318 7.66286 14.6644 7.13551C14.7967 6.60958 14.8643 5.90765 14.9426 5.12469L12.9525 4.92568ZM12.9915 4.53548L12.9525 4.92568L14.9426 5.12469L14.9816 4.73448L12.9915 4.53548ZM13.7296 2.35108C13.3772 2.67004 13.2259 3.06243 13.1444 3.41386C13.0694 3.73748 13.0316 4.13411 12.9915 4.53548L14.9816 4.73448C15.027 4.27991 15.0535 4.03459 15.0927 3.86561C15.1254 3.72444 15.1384 3.77357 15.0716 3.83398L13.7296 2.35108ZM15.9766 1.83398C15.5733 1.83398 15.1748 1.83204 14.8454 1.87451C14.4876 1.92062 14.0821 2.03212 13.7296 2.35108L15.0716 3.83398C15.0049 3.8944 14.9573 3.87662 15.101 3.8581C15.2731 3.83593 15.5198 3.83398 15.9766 3.83398V1.83398ZM18.0233 1.83398H15.9766V3.83398H18.0233V1.83398ZM20.2703 2.35108C19.9179 2.03212 19.5124 1.92062 19.1546 1.87451C18.8251 1.83204 18.4267 1.83398 18.0233 1.83398V3.83398C18.4802 3.83398 18.7269 3.83593 18.899 3.8581C19.0427 3.87662 18.9951 3.8944 18.9283 3.83398L20.2703 2.35108ZM21.0085 4.53545C20.9683 4.13409 20.9306 3.73747 20.8556 3.41385C20.7741 3.06242 20.6228 2.67004 20.2703 2.35108L18.9283 3.83399C18.8616 3.77357 18.8745 3.72444 18.9073 3.86561C18.9464 4.03459 18.9729 4.2799 19.0184 4.73446L21.0085 4.53545ZM21.6666 17.0007C21.6666 19.578 19.5773 21.6673 17 21.6673V23.6673C20.6819 23.6673 23.6666 20.6825 23.6666 17.0007H21.6666ZM17 12.334C19.5773 12.334 21.6666 14.4233 21.6666 17.0007H23.6666C23.6666 13.3188 20.6819 10.334 17 10.334V12.334ZM12.3333 17.0007C12.3333 14.4233 14.4227 12.334 17 12.334V10.334C13.3181 10.334 10.3333 13.3188 10.3333 17.0007H12.3333ZM17 21.6673C14.4227 21.6673 12.3333 19.578 12.3333 17.0007H10.3333C10.3333 20.6825 13.3181 23.6673 17 23.6673V21.6673Z" fill="#0C0C0C"/>
</svg>
