<svg width="42" height="42" viewBox="0 0 42 42" fill="none" xmlns="http://www.w3.org/2000/svg">
<path d="M15.75 12.25L22.75 12.25" stroke="#0C0C0C" stroke-width="2" stroke-linecap="round"/>
<path d="M15.75 26.25L21 26.25" stroke="#0C0C0C" stroke-width="2" stroke-linecap="round"/>
<path d="M15.75 19.25L26.25 19.25" stroke="#0C0C0C" stroke-width="2" stroke-linecap="round"/>
<path d="M33.25 19.25V11.25C33.25 8.42157 33.25 7.00736 32.3713 6.12868C31.4926 5.25 30.0784 5.25 27.25 5.25H14.75C11.9216 5.25 10.5074 5.25 9.62868 6.12868C8.75 7.00736 8.75 8.42157 8.75 11.25V30.75C8.75 33.5784 8.75 34.9926 9.62868 35.8713C10.5074 36.75 11.9216 36.75 14.75 36.75H21" stroke="#0C0C0C" stroke-width="2"/>
<circle cx="30.625" cy="30.625" r="4.375" stroke="#0C0C0C" stroke-width="2"/>
<path d="M36.75 36.75L34.125 34.125" stroke="#0C0C0C" stroke-width="2" stroke-linecap="round"/>
</svg>
