<svg width="25" height="26" viewBox="0 0 25 26" fill="none" xmlns="http://www.w3.org/2000/svg">
<path fill-rule="evenodd" clip-rule="evenodd" d="M24.1668 11.0423C24.1668 6.94597 24.1668 4.8978 23.1837 3.42649C22.7581 2.78955 22.2113 2.24267 21.5743 1.81708C20.103 0.833984 18.0548 0.833984 13.9585 0.833984H11.0418C6.94548 0.833984 4.89731 0.833984 3.426 1.81708C2.78906 2.24267 2.24218 2.78955 1.81659 3.42649C0.833496 4.8978 0.833496 6.94597 0.833496 11.0423C0.833496 15.1387 0.833496 17.1868 1.81659 18.6581C2.24218 19.2951 2.78906 19.842 3.426 20.2676C4.71131 21.1264 6.43685 21.2349 9.5835 21.2487V21.2507L11.6057 25.2951C11.9743 26.0322 13.0261 26.0322 13.3946 25.2951L15.4168 21.2507V21.2487C18.5635 21.2349 20.289 21.1264 21.5743 20.2676C22.2113 19.842 22.7581 19.2951 23.1837 18.6581C24.1668 17.1868 24.1668 15.1387 24.1668 11.0423ZM6.66683 12.5007C7.47224 12.5007 8.12516 11.8477 8.12516 11.0423C8.12516 10.2369 7.47224 9.58398 6.66683 9.58398C5.86141 9.58398 5.2085 10.2369 5.2085 11.0423C5.2085 11.8477 5.86141 12.5007 6.66683 12.5007ZM13.9585 11.0423C13.9585 11.8477 13.3056 12.5007 12.5002 12.5007C11.6947 12.5007 11.0418 11.8477 11.0418 11.0423C11.0418 10.2369 11.6947 9.58398 12.5002 9.58398C13.3056 9.58398 13.9585 10.2369 13.9585 11.0423ZM19.7918 11.0423C19.7918 11.8477 19.1389 12.5007 18.3335 12.5007C17.5281 12.5007 16.8752 11.8477 16.8752 11.0423C16.8752 10.2369 17.5281 9.58398 18.3335 9.58398C19.1389 9.58398 19.7918 10.2369 19.7918 11.0423Z" fill="white"/>
</svg>
